G04 Layer_Physical_Order=1*
G04 Layer_Color=255*
%FSLAX43Y43*%
%MOMM*%
G71*
G01*
G75*
%ADD10R,1.500X1.400*%
%ADD11R,0.800X0.900*%
%ADD12R,0.900X0.800*%
%ADD13R,1.400X1.500*%
%ADD14O,0.300X1.650*%
%ADD15O,1.650X0.300*%
%ADD16R,0.380X1.020*%
%ADD17R,1.220X0.620*%
%ADD18O,0.300X2.000*%
G04:AMPARAMS|DCode=19|XSize=0.55mm|YSize=1.25mm|CornerRadius=0.05mm|HoleSize=0mm|Usage=FLASHONLY|Rotation=90.000|XOffset=0mm|YOffset=0mm|HoleType=Round|Shape=RoundedRectangle|*
%AMROUNDEDRECTD19*
21,1,0.550,1.151,0,0,90.0*
21,1,0.451,1.250,0,0,90.0*
1,1,0.099,0.576,0.226*
1,1,0.099,0.576,-0.226*
1,1,0.099,-0.576,-0.226*
1,1,0.099,-0.576,0.226*
%
%ADD19ROUNDEDRECTD19*%
%ADD20R,0.800X0.600*%
%ADD21C,0.200*%
%ADD22C,0.254*%
%ADD23C,0.125*%
%ADD24C,0.500*%
%ADD25C,1.500*%
%ADD26R,1.500X1.500*%
%ADD27R,1.500X1.500*%
%ADD28C,1.524*%
%ADD29C,0.400*%
%ADD30C,1.270*%
%ADD31C,0.800*%
D10*
X7000Y28200D02*
D03*
Y26200D02*
D03*
X9800Y28200D02*
D03*
Y26200D02*
D03*
X12600Y28200D02*
D03*
Y26200D02*
D03*
X15300D02*
D03*
Y28200D02*
D03*
X4100Y30000D02*
D03*
Y28000D02*
D03*
X5600Y16800D02*
D03*
Y18800D02*
D03*
X3600D02*
D03*
Y16800D02*
D03*
X16800Y10000D02*
D03*
Y8000D02*
D03*
D11*
X12000Y22600D02*
D03*
X13400D02*
D03*
X6400Y20900D02*
D03*
X5000D02*
D03*
X9700Y15600D02*
D03*
X8300D02*
D03*
X6700Y15100D02*
D03*
X5300D02*
D03*
X11800Y6100D02*
D03*
X13200D02*
D03*
D12*
X15400Y14600D02*
D03*
Y16000D02*
D03*
X3200Y10200D02*
D03*
Y8800D02*
D03*
D13*
X15700Y17900D02*
D03*
X17700D02*
D03*
D14*
X13700Y45400D02*
D03*
X13200D02*
D03*
X12700D02*
D03*
X12200D02*
D03*
X11700D02*
D03*
X11200D02*
D03*
X10700D02*
D03*
X10200D02*
D03*
X9700D02*
D03*
X9200D02*
D03*
X8700D02*
D03*
X8200D02*
D03*
Y37200D02*
D03*
X8700D02*
D03*
X9200D02*
D03*
X9700D02*
D03*
X10200D02*
D03*
X10700D02*
D03*
X11200D02*
D03*
X11700D02*
D03*
X12200D02*
D03*
X12700D02*
D03*
X13200D02*
D03*
X13700D02*
D03*
D15*
X6850Y44050D02*
D03*
Y43550D02*
D03*
Y43050D02*
D03*
Y42550D02*
D03*
Y42050D02*
D03*
Y41550D02*
D03*
Y41050D02*
D03*
Y40550D02*
D03*
Y40050D02*
D03*
Y39550D02*
D03*
Y39050D02*
D03*
Y38550D02*
D03*
X15050D02*
D03*
Y39050D02*
D03*
Y39550D02*
D03*
Y40050D02*
D03*
Y40550D02*
D03*
Y41050D02*
D03*
Y41550D02*
D03*
Y42050D02*
D03*
Y42550D02*
D03*
Y43050D02*
D03*
Y43550D02*
D03*
Y44050D02*
D03*
D16*
X4960Y48300D02*
D03*
X5600D02*
D03*
X6240D02*
D03*
X6880D02*
D03*
X7520D02*
D03*
X8160D02*
D03*
X8800D02*
D03*
X9440D02*
D03*
X10080D02*
D03*
X10720D02*
D03*
X11360D02*
D03*
X12000D02*
D03*
X12640D02*
D03*
X13280D02*
D03*
X13920D02*
D03*
X14560D02*
D03*
X15200D02*
D03*
X15840D02*
D03*
X4960Y49580D02*
D03*
X5600D02*
D03*
X6240D02*
D03*
X6880D02*
D03*
X7520D02*
D03*
X8160D02*
D03*
X8800D02*
D03*
X9440D02*
D03*
X10080D02*
D03*
X10720D02*
D03*
X11360D02*
D03*
X12000D02*
D03*
X12640D02*
D03*
X13280D02*
D03*
X13920D02*
D03*
X14560D02*
D03*
X15200D02*
D03*
X15840D02*
D03*
D17*
X11190Y8050D02*
D03*
Y9950D02*
D03*
X13810D02*
D03*
Y9000D02*
D03*
Y8050D02*
D03*
D18*
X4800Y6700D02*
D03*
X5300D02*
D03*
X5800D02*
D03*
X6300D02*
D03*
X6800D02*
D03*
X4800Y10900D02*
D03*
X5300D02*
D03*
X5800D02*
D03*
X6300D02*
D03*
X6800D02*
D03*
D19*
X13325Y17195D02*
D03*
Y18465D02*
D03*
Y19735D02*
D03*
Y21005D02*
D03*
X8075Y17195D02*
D03*
Y18465D02*
D03*
Y19735D02*
D03*
Y21005D02*
D03*
D20*
X4100Y26625D02*
D03*
Y25175D02*
D03*
D21*
X19200Y17900D02*
X19600Y18300D01*
X17700Y17900D02*
X19200D01*
X15400Y17600D02*
X15500Y17700D01*
X14995Y17195D02*
X15400Y17600D01*
X13325Y17195D02*
X14995D01*
X15400Y16000D02*
Y17600D01*
X15300Y14700D02*
X15400Y14600D01*
X14000Y14700D02*
X15300D01*
X4900Y21000D02*
X5000D01*
X3600Y18200D02*
X5600D01*
X15300Y28200D02*
Y29840D01*
X12600Y28200D02*
Y30100D01*
X9800Y29840D02*
X9830Y29870D01*
X9800Y28200D02*
Y29840D01*
X4860Y2300D02*
X6100Y1060D01*
X1600Y2300D02*
X4860D01*
X800Y3100D02*
X1600Y2300D01*
X8640Y1060D02*
X9780Y2200D01*
X12000D01*
X13300Y900D01*
X19800D01*
X2400Y4600D02*
Y13200D01*
X800Y3100D02*
Y40800D01*
X1500Y41500D01*
X21000Y2100D02*
Y34000D01*
X19800Y900D02*
X21000Y2100D01*
X19300Y20900D02*
Y21500D01*
X18135Y19735D02*
X19300Y20900D01*
X13325Y19735D02*
X18135D01*
X5300Y10900D02*
Y12200D01*
X4800Y12700D02*
X5300Y12200D01*
X13810Y6710D02*
X13825Y6695D01*
X14695D01*
X6900Y13500D02*
Y13577D01*
X2200Y32999D02*
X2525Y33324D01*
X2200Y21600D02*
Y32999D01*
X2100Y33500D02*
Y33700D01*
X2200Y15700D02*
Y21600D01*
X3400D01*
X8500Y8050D02*
Y10900D01*
X9400Y11800D01*
X12000Y23900D02*
X12000Y23900D01*
Y22600D02*
Y23900D01*
X19000Y26000D02*
Y28100D01*
X20975Y34025D02*
X21000Y34000D01*
X2525Y33324D02*
Y33876D01*
X3600Y12700D02*
X4800Y11500D01*
X4800Y13700D02*
X5284D01*
X4800Y10900D02*
Y11500D01*
X5284Y13700D02*
X5827Y13157D01*
X6300Y10900D02*
Y13200D01*
X3700Y14300D02*
X11700D01*
X5827Y10927D02*
Y13157D01*
X5800Y10900D02*
X5827Y10927D01*
X6800Y10900D02*
Y12300D01*
X8000Y13500D01*
X6300Y10900D02*
X6300Y10900D01*
X5600Y18200D02*
X5600Y18200D01*
X5300Y15100D02*
Y16500D01*
X3200Y8800D02*
X5100D01*
X5800Y8100D01*
Y6700D02*
Y8100D01*
X5300Y4900D02*
Y6700D01*
X6300Y4900D02*
Y6700D01*
X8075Y19735D02*
Y21005D01*
X7970Y20900D02*
X8075Y21005D01*
X6400Y20900D02*
X7970D01*
X6850Y44050D02*
X8450D01*
X6850Y43550D02*
X7950D01*
X8450Y44050D01*
X2175Y34226D02*
Y39975D01*
Y34226D02*
X2525Y33876D01*
X6850Y38550D02*
Y39050D01*
X7850D01*
X8100Y39300D01*
X5400Y42000D02*
X5450Y42050D01*
X6850D01*
X5500Y41400D02*
X5650Y41550D01*
X6850D01*
X1750Y34050D02*
Y40650D01*
Y34050D02*
X2100Y33700D01*
X5500Y40600D02*
X5950Y41050D01*
X6850D01*
X8900Y42000D02*
X9350Y41550D01*
X8200Y42000D02*
X8900D01*
X7750Y41550D02*
X8200Y42000D01*
X6850Y41550D02*
X7750D01*
X6850Y41050D02*
X8650D01*
X8700Y41000D01*
X16350Y42050D02*
X17400Y43100D01*
X18600D01*
X3600Y12700D02*
Y16800D01*
X5300Y16500D02*
X5600Y16800D01*
X2400Y4600D02*
X3480Y3520D01*
D22*
X5000Y19100D02*
X5600Y18500D01*
X7000Y30040D02*
X7060Y30100D01*
X7000Y28200D02*
Y30040D01*
Y26200D02*
X9800D01*
X12270D02*
X12600D01*
X9800D02*
X12270D01*
X12600D02*
X15300D01*
X12270Y24930D02*
X12600Y24600D01*
X14830Y26470D02*
X14900Y26400D01*
X9440Y26600D02*
X9570Y26470D01*
X8500Y8050D02*
X11190D01*
X7250D02*
X8500D01*
X3200Y10200D02*
Y11700D01*
X6800Y7600D02*
X7250Y8050D01*
X6800Y6700D02*
Y7600D01*
X9550Y9950D02*
X11190D01*
X10200Y6100D02*
X11800D01*
X8965Y19735D02*
X14000Y14700D01*
X8075Y19735D02*
X8965D01*
X5600Y16800D02*
X7265Y18465D01*
X8075D01*
X13325Y21005D02*
X14895D01*
X10600Y15600D02*
X11000Y16000D01*
X9700Y15600D02*
X10600D01*
X14870Y26770D02*
X14870Y26770D01*
X11190Y9950D02*
X12140Y9000D01*
X13810Y8050D02*
X13860Y8000D01*
X13810Y6710D02*
Y8050D01*
Y9950D02*
X13860Y10000D01*
X13200Y6100D02*
X13810Y6710D01*
X12140Y9000D02*
X13810D01*
X13325Y18465D02*
Y19735D01*
X5000Y19100D02*
Y20648D01*
X8075Y17195D02*
X8300Y16970D01*
Y15600D02*
Y16970D01*
X13325Y22525D02*
X13400Y22600D01*
X13325Y21005D02*
Y22525D01*
X15050Y41550D02*
X15950D01*
X16300Y41200D01*
Y37100D02*
X18700D01*
X13860Y10000D02*
X16800D01*
X13860Y8000D02*
X16800D01*
X6700Y15100D02*
X6900Y15300D01*
Y16200D01*
X12270Y24930D02*
Y26200D01*
D23*
X6820Y47100D02*
X6900D01*
X6820D02*
X6860Y47140D01*
X6900Y47100D02*
X7338Y46662D01*
X6900Y46412D02*
X6912Y46400D01*
X5580Y47120D02*
X7300Y45400D01*
X8400Y47300D02*
Y47300D01*
Y47300D02*
X8400Y47300D01*
X8140Y47560D02*
X8400Y47300D01*
X8547Y46912D02*
X8887D01*
X8547Y46912D02*
X8547Y46912D01*
X7688Y46912D02*
X8547D01*
X8691Y46662D02*
X9200Y46154D01*
X8443Y46662D02*
X8691D01*
X8443Y46662D02*
X8443Y46662D01*
X7338Y46662D02*
X8443D01*
X8340Y46412D02*
X8340Y46412D01*
X9600Y47200D02*
X10700Y46100D01*
X9450Y47200D02*
X9600D01*
X8780Y47870D02*
X9450Y47200D01*
X9420Y47980D02*
X10200Y47200D01*
X8887Y46912D02*
X9700Y46100D01*
X7500Y47100D02*
X7688Y46912D01*
X6220Y46880D02*
X6688Y46412D01*
X3250Y49450D02*
X4350Y50550D01*
X3250Y44943D02*
Y49450D01*
X4350Y50550D02*
X5750D01*
X3500Y49300D02*
X4500Y50300D01*
X3000Y49700D02*
X4100Y50800D01*
X2750Y50150D02*
X3650Y51050D01*
X2500Y50254D02*
X3546Y51300D01*
X2250Y50357D02*
X3443Y51550D01*
X2000Y50461D02*
X3339Y51800D01*
X2750Y43450D02*
Y50150D01*
X3650Y51050D02*
X6750D01*
X2500Y41155D02*
Y50254D01*
X3546Y51300D02*
X7000D01*
X2250Y41052D02*
Y50357D01*
X3443Y51550D02*
X7510D01*
X2000Y40948D02*
Y50461D01*
X3339Y51800D02*
X8000D01*
X3000Y44200D02*
Y49700D01*
X4100Y50800D02*
X6220D01*
X3500Y45800D02*
Y49300D01*
X5300Y50300D02*
X5600Y50000D01*
X4500Y50300D02*
X5300D01*
X2500Y41155D02*
X3500Y40155D01*
X2250Y41052D02*
X2812Y40489D01*
X2000Y40948D02*
X2562Y40386D01*
X2750Y43450D02*
X3900Y42300D01*
X8000Y51800D02*
X9420Y50380D01*
X7510Y51550D02*
X8780Y50280D01*
X7000Y51300D02*
X8140Y50160D01*
X6750Y51050D02*
X7500Y50300D01*
X6220Y50800D02*
X6860Y50160D01*
X5750Y50550D02*
X6220Y50080D01*
X13900Y47552D02*
X15552Y45900D01*
X16100Y47300D02*
X16200D01*
X16100Y46900D02*
X19150Y43850D01*
X16300Y47500D02*
Y50100D01*
X15352Y46600D02*
X15448D01*
X16400Y45648D01*
X15050Y45300D02*
Y45898D01*
X13260Y47688D02*
X15050Y45898D01*
X15552Y45900D02*
X16100Y45352D01*
X14540Y47412D02*
X15352Y46600D01*
X16800Y46800D02*
Y49954D01*
Y46554D02*
Y46800D01*
X16400Y43400D02*
Y45648D01*
X16700Y43300D02*
Y45896D01*
X15200Y47348D02*
X15248D01*
X16104Y50650D02*
X16800Y49954D01*
X15200Y47348D02*
Y48300D01*
X15180Y48320D02*
X15200Y48300D01*
X16800Y46554D02*
X19400Y43954D01*
X8340Y46412D02*
X8588D01*
X8700Y46300D01*
X8400Y47300D02*
X8952D01*
X9012Y47240D01*
X10200Y47152D02*
Y47200D01*
X10700Y47748D02*
X11748Y46700D01*
X8700Y45400D02*
Y46300D01*
X9200Y45400D02*
Y46154D01*
X10900Y47000D02*
X10948D01*
X10200Y47152D02*
X11200Y46152D01*
X9012Y47239D02*
X9439Y46812D01*
X9700Y45400D02*
Y46100D01*
X9012Y47239D02*
Y47240D01*
X9440Y46812D02*
X10200Y46052D01*
X9439Y46812D02*
X9440D01*
X10700Y45400D02*
Y46100D01*
X11748Y46700D02*
X11800D01*
X10948Y47000D02*
X11700Y46248D01*
X11200Y45400D02*
Y46152D01*
X12700Y47000D02*
X13200Y46500D01*
X11980Y47720D02*
X12700Y47000D01*
X11340Y47708D02*
X11800Y47248D01*
X12700Y46348D01*
X11700Y46700D02*
X11748D01*
X12620Y47780D02*
X13500Y46900D01*
X13700Y46700D01*
X13500Y46900D02*
X13500D01*
X5600Y49580D02*
Y50000D01*
X16000Y50400D02*
X16300Y50100D01*
X15400Y50400D02*
X16000D01*
X15200Y50200D02*
X15400Y50400D01*
X14560Y50260D02*
X14950Y50650D01*
X16104D01*
X14560Y49580D02*
Y50260D01*
X14600Y50900D02*
X17879D01*
X13900Y50200D02*
X14600Y50900D01*
X14150Y51150D02*
X17982D01*
X13300Y50300D02*
X14150Y51150D01*
X13800Y51400D02*
X18086D01*
X12620Y50220D02*
X13800Y51400D01*
X13450Y51650D02*
X18189D01*
X11980Y50180D02*
X13450Y51650D01*
X13000Y51900D02*
X18293D01*
X11340Y50240D02*
X13000Y51900D01*
X10700Y50200D02*
X12650Y52150D01*
X10060Y51560D02*
X10900Y52400D01*
X15200Y49580D02*
Y50200D01*
X13900Y49600D02*
Y50200D01*
X13300Y49640D02*
Y50300D01*
X3500Y45800D02*
X5200Y44100D01*
X3250Y44943D02*
X4700Y43493D01*
X3000Y44200D02*
X4300Y42900D01*
X3500Y40100D02*
Y40155D01*
X2812Y39787D02*
Y40489D01*
X2562Y38938D02*
Y40386D01*
X2812Y39787D02*
X3100Y39500D01*
X2562Y38938D02*
X2600Y38900D01*
X7300Y45400D02*
X8200D01*
X15050Y43550D02*
X15950D01*
X15050Y43050D02*
X16050D01*
X15050Y42550D02*
X15950D01*
X6220Y49600D02*
Y50080D01*
X6860Y49600D02*
Y50160D01*
X7500Y49600D02*
Y50300D01*
X8140Y49600D02*
Y50160D01*
X8780Y49600D02*
Y50280D01*
X9420Y49600D02*
Y50380D01*
X12620Y49600D02*
Y50220D01*
X11980Y49600D02*
Y50180D01*
X11340Y49600D02*
Y50240D01*
X10700Y49600D02*
Y50200D01*
X10060Y49600D02*
Y51560D01*
X15050Y39550D02*
X15050Y39550D01*
X13200Y36300D02*
Y37200D01*
X12700Y36100D02*
Y37200D01*
X8700Y36100D02*
Y37200D01*
X9200Y36246D02*
Y37200D01*
Y35400D02*
X9700Y35900D01*
Y37200D01*
X9700Y37200D01*
X10200Y35900D02*
Y37200D01*
X9400Y35100D02*
X10200Y35900D01*
X5400Y37200D02*
X8200D01*
X5600Y34800D02*
X9600D01*
X10700Y35900D01*
Y37200D01*
X11200Y36000D02*
Y37200D01*
X9700Y34500D02*
X11200Y36000D01*
X5546Y34500D02*
X9700D01*
X6100Y35900D02*
X8500D01*
X8700Y36100D01*
X5996Y35650D02*
X8604D01*
X9200Y36246D01*
X5800Y35400D02*
X9200D01*
X5746Y35100D02*
X9400D01*
X6688Y46412D02*
X6900D01*
X13700Y45400D02*
Y46700D01*
X13200Y45400D02*
Y46500D01*
X10200Y45400D02*
Y46052D01*
X11700Y45400D02*
Y46248D01*
X12200Y45400D02*
Y46248D01*
X12700Y45400D02*
Y46348D01*
X2600Y37446D02*
X5546Y34500D01*
X4700Y37300D02*
X6100Y35900D01*
X3500Y37346D02*
X5746Y35100D01*
X3900Y37300D02*
X5800Y35400D01*
X4300Y37346D02*
X5996Y35650D01*
X4300Y37346D02*
Y42900D01*
X3100Y37300D02*
X5600Y34800D01*
X3500Y37346D02*
Y40100D01*
X3900Y37300D02*
Y42300D01*
X3100Y37300D02*
Y39500D01*
X2600Y37446D02*
Y38900D01*
X11700Y37200D02*
Y38300D01*
X13700Y37200D02*
X14600D01*
X13200Y36300D02*
X13400Y36100D01*
X14600D01*
X12700D02*
X12900Y35900D01*
X13150Y35650D01*
X12200Y35700D02*
Y37200D01*
Y35700D02*
X12500Y35400D01*
X15950Y42550D02*
X16700Y43300D01*
X16050Y43050D02*
X16400Y43400D01*
X15950Y43550D02*
X16100Y43700D01*
X15050Y44050D02*
Y45300D01*
X16100Y43700D02*
Y45352D01*
X13550Y38550D02*
X15050D01*
X13500Y38500D02*
X13550Y38550D01*
X8200Y38600D02*
X11400D01*
X11700Y38300D01*
X13100Y39000D02*
X13150Y39050D01*
X4700Y37300D02*
Y43493D01*
X4950Y37650D02*
X5400Y37200D01*
X4950Y37650D02*
Y43050D01*
X5250Y43350D01*
Y44050D01*
X13150Y39050D02*
X15050D01*
X11700Y35500D02*
Y37200D01*
Y35500D02*
X12100Y35100D01*
X15050Y39550D02*
X16450D01*
X19400Y42500D01*
Y43954D01*
X19650Y42396D02*
Y44057D01*
X19900Y42293D02*
Y44161D01*
X20150Y42189D02*
Y44264D01*
X15161Y37200D02*
X20150Y42189D01*
X16157Y38550D02*
X19900Y42293D01*
X16304Y39050D02*
X19650Y42396D01*
X15050Y39050D02*
X16304D01*
X15050Y38550D02*
X16157D01*
X14600Y37200D02*
X15161D01*
X15050Y40050D02*
X16596D01*
X19150Y42604D01*
Y43850D01*
X14600Y36100D02*
X18248D01*
X13150Y35650D02*
X18152D01*
X12500Y35400D02*
X18255D01*
X12100Y35100D02*
X18309D01*
X15200Y47348D02*
X15348Y47200D01*
X18700Y45007D02*
X19650Y44057D01*
X17879Y50900D02*
X18700Y50079D01*
X19300Y44761D02*
X19900Y44161D01*
X17982Y51150D02*
X19300Y49832D01*
X19800Y44614D02*
X20150Y44264D01*
X18086Y51400D02*
X19800Y49686D01*
X20400Y38252D02*
Y44368D01*
X20200Y44568D02*
X20400Y44368D01*
X18189Y51650D02*
X20200Y49639D01*
X18248Y36100D02*
X20400Y38252D01*
X18255Y35400D02*
X21100Y38245D01*
X18700Y45007D02*
Y45700D01*
Y50079D01*
X19300Y44761D02*
Y46300D01*
Y49832D01*
X19800Y44614D02*
Y47400D01*
Y49686D01*
X20200Y44568D02*
Y48200D01*
Y49639D01*
X12650Y52150D02*
X18396D01*
X18152Y35650D02*
X20650Y38148D01*
X18293Y51900D02*
X20650Y49543D01*
X18396Y52150D02*
X21100Y49446D01*
X20650Y38148D02*
Y48900D01*
Y49543D01*
X10900Y52400D02*
X18500D01*
X18309Y35100D02*
X21500Y38291D01*
X18500Y52400D02*
X21500Y49400D01*
Y38291D02*
Y49400D01*
X21100Y38245D02*
Y47600D01*
Y49446D01*
X8780Y47870D02*
Y48320D01*
X10060Y47888D02*
X10948Y47000D01*
X10060Y47888D02*
Y48320D01*
X10700Y47748D02*
Y48320D01*
X11748Y46700D02*
X12200Y46248D01*
X11980Y47720D02*
Y48320D01*
X13900Y47552D02*
Y48320D01*
X14540Y47412D02*
Y48320D01*
X7500Y47100D02*
Y48320D01*
X8140Y47560D02*
Y48320D01*
X13260Y47688D02*
Y48320D01*
X5580Y47120D02*
Y48320D01*
X6860Y47140D02*
Y48320D01*
X6220Y46880D02*
Y48320D01*
X6900Y46412D02*
X8340D01*
X15248Y47348D02*
X16700Y45896D01*
X13260Y49600D02*
X13300Y49640D01*
X9420Y47980D02*
Y48320D01*
X11340Y47708D02*
Y48320D01*
X12620Y47780D02*
Y48320D01*
X16100Y46900D02*
Y47300D01*
X16300Y47500D01*
D24*
X1340Y1060D02*
X3560D01*
X11180Y3600D02*
X13000D01*
X4100Y28300D02*
X4100Y28300D01*
Y23900D02*
Y25175D01*
X8075Y17195D02*
X9895D01*
X4100Y26625D02*
Y28000D01*
Y28300D01*
X4100Y29700D02*
Y31100D01*
D25*
X3560Y1060D02*
D03*
Y3600D02*
D03*
X6100Y1060D02*
D03*
Y3600D02*
D03*
X8640Y1060D02*
D03*
Y3600D02*
D03*
X11180Y1060D02*
D03*
X19000Y28100D02*
D03*
X14920Y30400D02*
D03*
X12380Y32940D02*
D03*
Y30400D02*
D03*
X9840Y32940D02*
D03*
Y30400D02*
D03*
X7300Y32940D02*
D03*
Y30400D02*
D03*
D26*
X11180Y3600D02*
D03*
X14920Y32940D02*
D03*
D27*
X19000Y30640D02*
D03*
D28*
X2400Y13200D02*
D03*
X14700Y2900D02*
D03*
X17200D02*
D03*
X19500D02*
D03*
X9400Y11800D02*
D03*
X19300Y21500D02*
D03*
X3400Y21600D02*
D03*
X3600Y34500D02*
D03*
X11700Y14300D02*
D03*
D29*
X6820Y47100D02*
D03*
X6912Y46400D02*
D03*
X8400Y47300D02*
D03*
X9600Y47200D02*
D03*
X7500Y47100D02*
D03*
X16200Y47300D02*
D03*
X15448Y46600D02*
D03*
X15552Y45900D02*
D03*
X16800Y46800D02*
D03*
X10200Y47200D02*
D03*
X10900Y47000D02*
D03*
X11800Y46700D02*
D03*
X12700Y47000D02*
D03*
X11800Y47248D02*
D03*
X13500Y46900D02*
D03*
X2100Y33500D02*
D03*
X12000Y23900D02*
D03*
X20975Y34025D02*
D03*
X2200Y15700D02*
D03*
X4800Y13700D02*
D03*
X6300Y13200D02*
D03*
X8000Y13500D02*
D03*
X5300Y4900D02*
D03*
X6300D02*
D03*
X8450Y44050D02*
D03*
X7300Y45400D02*
D03*
X4300Y42900D02*
D03*
X3900Y42300D02*
D03*
X3500Y40100D02*
D03*
X3100Y39500D02*
D03*
X2600Y38900D02*
D03*
X14600Y37200D02*
D03*
Y36100D02*
D03*
X12900Y35900D02*
D03*
X15050Y45300D02*
D03*
X12200Y35700D02*
D03*
X8100Y39300D02*
D03*
X13500Y38500D02*
D03*
X13100Y39000D02*
D03*
X8200Y38600D02*
D03*
X13400Y39600D02*
D03*
X13350Y44050D02*
D03*
X8400Y41500D02*
D03*
X1500D02*
D03*
X4700Y43493D02*
D03*
X5250Y44050D02*
D03*
X5400Y42000D02*
D03*
X5500Y41400D02*
D03*
X2175Y39975D02*
D03*
X5500Y40600D02*
D03*
X1750Y40650D02*
D03*
X9350Y41550D02*
D03*
X8700Y41000D02*
D03*
X16300Y41200D02*
D03*
Y37100D02*
D03*
X18700D02*
D03*
X16350Y42050D02*
D03*
X18600Y43100D02*
D03*
X15348Y47200D02*
D03*
X18700Y45700D02*
D03*
X19300Y46300D02*
D03*
X19800Y47400D02*
D03*
X20200Y48200D02*
D03*
X20650Y48900D02*
D03*
X21100Y47600D02*
D03*
D30*
X1340Y1060D02*
D03*
X13000Y3600D02*
D03*
X19000Y26000D02*
D03*
X9895Y17195D02*
D03*
D31*
X12600Y24600D02*
D03*
X8200Y23700D02*
D03*
X4100Y23900D02*
D03*
X4100Y31100D02*
D03*
X4800Y12700D02*
D03*
X3200Y11700D02*
D03*
X14695Y6695D02*
D03*
X9550Y9950D02*
D03*
X10200Y6100D02*
D03*
X15500Y5700D02*
D03*
X17235Y11735D02*
D03*
X19600Y18300D02*
D03*
X5005Y22905D02*
D03*
X14895Y21005D02*
D03*
X16600Y21300D02*
D03*
X11000Y16000D02*
D03*
X6900Y16200D02*
D03*
M02*
