G04 Layer_Physical_Order=2*
G04 Layer_Color=32768*
%FSLAX43Y43*%
%MOMM*%
G71*
G01*
G75*
%ADD32C,1.016*%
%ADD33C,1.800*%
%ADD34C,1.400*%
%ADD35C,1.700*%
%ADD36C,1.000*%
%ADD37C,1.200*%
%ADD38C,1.511*%
D32*
X22100Y53000D02*
X22100Y-0D01*
X0Y-0D02*
X22100Y-0D01*
X-0Y53000D02*
X0Y-0D01*
X-0Y53000D02*
X22100Y53000D01*
D33*
X11700Y14300D02*
D03*
X3600Y34500D02*
D03*
X3400Y21600D02*
D03*
X19300Y21500D02*
D03*
X9400Y11800D02*
D03*
X17600Y2900D02*
D03*
X12800Y2800D02*
D03*
X2700Y3900D02*
D03*
D34*
X8970Y3300D02*
D03*
Y2030D02*
D03*
X7700Y3300D02*
D03*
Y2030D02*
D03*
X6430Y3300D02*
D03*
Y2030D02*
D03*
X5160Y3300D02*
D03*
D35*
X1400Y43420D02*
D03*
Y45960D02*
D03*
Y48500D02*
D03*
Y51040D02*
D03*
X14680Y32640D02*
D03*
X12140D02*
D03*
X9600D02*
D03*
X7060D02*
D03*
X14680Y30100D02*
D03*
X12140D02*
D03*
X9600D02*
D03*
X7060D02*
D03*
X19000Y30640D02*
D03*
D36*
X18600Y43100D02*
D03*
X16350Y42050D02*
D03*
X18700Y37100D02*
D03*
X16300D02*
D03*
Y41200D02*
D03*
X8700Y41000D02*
D03*
X9350Y41550D02*
D03*
X1750Y40650D02*
D03*
X5500Y40600D02*
D03*
X2175Y39975D02*
D03*
X5500Y41400D02*
D03*
X5400Y42000D02*
D03*
X5250Y44050D02*
D03*
X4700Y43493D02*
D03*
X1500Y41500D02*
D03*
X13350Y44050D02*
D03*
X8200Y38600D02*
D03*
X13100Y39000D02*
D03*
X13500Y38500D02*
D03*
X16460Y47140D02*
D03*
X15820Y47340D02*
D03*
X12200Y35700D02*
D03*
X15180Y47420D02*
D03*
X15300Y46700D02*
D03*
X14100Y47400D02*
D03*
X15050Y45300D02*
D03*
X12900Y35900D02*
D03*
X14600Y36100D02*
D03*
Y37200D02*
D03*
X2600Y38900D02*
D03*
X3100Y39500D02*
D03*
X3500Y40100D02*
D03*
X3900Y42300D02*
D03*
X4300Y42900D02*
D03*
X13300Y47100D02*
D03*
X12400Y47300D02*
D03*
X11600Y47448D02*
D03*
X11800Y46700D02*
D03*
X10900Y47000D02*
D03*
X10200Y47200D02*
D03*
X9400Y47400D02*
D03*
X8200Y47500D02*
D03*
X7500Y47400D02*
D03*
X6900Y47100D02*
D03*
X6912Y46400D02*
D03*
X7300Y45400D02*
D03*
X8450Y44050D02*
D03*
X5300Y4900D02*
D03*
X8000Y13500D02*
D03*
X6300Y13200D02*
D03*
X2400D02*
D03*
X4800Y13700D02*
D03*
X2200Y15700D02*
D03*
X20975Y34025D02*
D03*
X2100Y33500D02*
D03*
D37*
X10400Y20400D02*
D03*
X14870Y25070D02*
D03*
X14895Y21005D02*
D03*
X5005Y22905D02*
D03*
X14695Y6695D02*
D03*
X11800Y24900D02*
D03*
X4100Y31100D02*
D03*
D38*
X9895Y17195D02*
D03*
X10800Y3300D02*
D03*
M02*
