G04 Layer_Physical_Order=1*
G04 Layer_Color=255*
%FSLAX43Y43*%
%MOMM*%
G71*
G01*
G75*
%ADD10R,0.900X0.800*%
%ADD11R,0.800X0.600*%
%ADD12R,0.800X0.900*%
G04:AMPARAMS|DCode=13|XSize=0.55mm|YSize=1.25mm|CornerRadius=0.05mm|HoleSize=0mm|Usage=FLASHONLY|Rotation=90.000|XOffset=0mm|YOffset=0mm|HoleType=Round|Shape=RoundedRectangle|*
%AMROUNDEDRECTD13*
21,1,0.550,1.151,0,0,90.0*
21,1,0.451,1.250,0,0,90.0*
1,1,0.099,0.576,0.226*
1,1,0.099,0.576,-0.226*
1,1,0.099,-0.576,-0.226*
1,1,0.099,-0.576,0.226*
%
%ADD13ROUNDEDRECTD13*%
%ADD14O,0.300X2.000*%
%ADD15R,1.220X0.620*%
%ADD16R,0.380X1.020*%
%ADD17O,1.650X0.300*%
%ADD18O,0.300X1.650*%
%ADD19C,0.254*%
%ADD20C,0.200*%
%ADD21C,0.125*%
%ADD22C,0.500*%
%ADD23C,1.524*%
%ADD24R,1.000X1.000*%
%ADD25C,1.000*%
%ADD26C,1.500*%
%ADD27R,1.500X1.500*%
%ADD28R,1.500X1.500*%
%ADD29C,0.400*%
%ADD30C,0.800*%
%ADD31C,1.270*%
D10*
X14870Y26770D02*
D03*
Y28170D02*
D03*
X12270Y28170D02*
D03*
Y26770D02*
D03*
X9570Y28170D02*
D03*
Y26770D02*
D03*
X6870Y28170D02*
D03*
Y26770D02*
D03*
X4100Y29700D02*
D03*
Y28300D02*
D03*
X5600Y16800D02*
D03*
Y18200D02*
D03*
X3600Y18200D02*
D03*
Y16800D02*
D03*
X15700Y16400D02*
D03*
Y15000D02*
D03*
X3200Y8800D02*
D03*
Y10200D02*
D03*
X16800Y9700D02*
D03*
Y8300D02*
D03*
D11*
X4100Y25175D02*
D03*
Y26625D02*
D03*
D12*
X13400Y22600D02*
D03*
X12000D02*
D03*
X5000Y20900D02*
D03*
X6400D02*
D03*
X8300Y15600D02*
D03*
X9700D02*
D03*
X5300Y15100D02*
D03*
X6700D02*
D03*
X17200Y18900D02*
D03*
X15800D02*
D03*
X13200Y6100D02*
D03*
X11800D02*
D03*
D13*
X8075Y21005D02*
D03*
Y19735D02*
D03*
Y18465D02*
D03*
Y17195D02*
D03*
X13325Y21005D02*
D03*
Y19735D02*
D03*
Y18465D02*
D03*
Y17195D02*
D03*
D14*
X6800Y10900D02*
D03*
X6300D02*
D03*
X5800D02*
D03*
X5300D02*
D03*
X4800D02*
D03*
X6800Y6700D02*
D03*
X6300D02*
D03*
X5800D02*
D03*
X5300D02*
D03*
X4800D02*
D03*
D15*
X13810Y8050D02*
D03*
Y9000D02*
D03*
Y9950D02*
D03*
X11190D02*
D03*
Y8050D02*
D03*
D16*
X16460Y49600D02*
D03*
X15820D02*
D03*
X15180D02*
D03*
X14540D02*
D03*
X13900D02*
D03*
X13260D02*
D03*
X12620D02*
D03*
X11980D02*
D03*
X11340D02*
D03*
X10700D02*
D03*
X10060D02*
D03*
X9420D02*
D03*
X8780D02*
D03*
X8140D02*
D03*
X7500D02*
D03*
X6860D02*
D03*
X6220D02*
D03*
X5580D02*
D03*
X16460Y48320D02*
D03*
X15820D02*
D03*
X15180D02*
D03*
X14540D02*
D03*
X13900D02*
D03*
X13260D02*
D03*
X12620D02*
D03*
X11980D02*
D03*
X11340D02*
D03*
X10700D02*
D03*
X10060D02*
D03*
X9420D02*
D03*
X8780D02*
D03*
X8140D02*
D03*
X7500D02*
D03*
X6860D02*
D03*
X6220D02*
D03*
X5580D02*
D03*
D17*
X15050Y44050D02*
D03*
Y43550D02*
D03*
Y43050D02*
D03*
Y42550D02*
D03*
Y42050D02*
D03*
Y41550D02*
D03*
Y41050D02*
D03*
Y40550D02*
D03*
Y40050D02*
D03*
Y39550D02*
D03*
Y39050D02*
D03*
Y38550D02*
D03*
X6850D02*
D03*
Y39050D02*
D03*
Y39550D02*
D03*
Y40050D02*
D03*
Y40550D02*
D03*
Y41050D02*
D03*
Y41550D02*
D03*
Y42050D02*
D03*
Y42550D02*
D03*
Y43050D02*
D03*
Y43550D02*
D03*
Y44050D02*
D03*
D18*
X13700Y37200D02*
D03*
X13200D02*
D03*
X12700D02*
D03*
X12200D02*
D03*
X11700D02*
D03*
X11200D02*
D03*
X10700D02*
D03*
X10200D02*
D03*
X9700D02*
D03*
X9200D02*
D03*
X8700D02*
D03*
X8200D02*
D03*
Y45400D02*
D03*
X8700D02*
D03*
X9200D02*
D03*
X9700D02*
D03*
X10200D02*
D03*
X10700D02*
D03*
X11200D02*
D03*
X11700D02*
D03*
X12200D02*
D03*
X12700D02*
D03*
X13200D02*
D03*
X13700D02*
D03*
D19*
X13860Y8000D02*
X16800D01*
X17400Y19100D02*
X17500Y19000D01*
X14000Y14700D02*
X15700D01*
X13860Y10000D02*
X16800D01*
X16300Y37100D02*
X18700D01*
X15950Y41550D02*
X16300Y41200D01*
X15050Y41550D02*
X15950D01*
X13325Y21005D02*
Y22525D01*
X13400Y22600D01*
X8300Y15600D02*
Y16970D01*
X8075Y17195D02*
X8300Y16970D01*
X5000Y19100D02*
X5600Y18500D01*
X5000Y19100D02*
Y20648D01*
X13325Y17195D02*
X15205D01*
X15700Y16700D01*
X13325Y18465D02*
Y19735D01*
X15800Y16800D02*
Y18900D01*
X15700Y16700D02*
X15800Y16800D01*
X12140Y9000D02*
X13810D01*
X13200Y6100D02*
X13810Y6710D01*
Y9950D02*
X13860Y10000D01*
X13810Y6710D02*
Y8050D01*
X13860Y8000D01*
X11190Y9950D02*
X12140Y9000D01*
X6870Y26770D02*
X9570D01*
X12270D01*
X14870D01*
X14870Y26770D01*
Y25070D02*
Y26770D01*
X9700Y15600D02*
X10600D01*
X11000Y16000D01*
X6700Y15100D02*
Y16200D01*
X13325Y21005D02*
X14895D01*
X7265Y18465D02*
X8075D01*
X5600Y16800D02*
X7265Y18465D01*
X8075Y19735D02*
X8965D01*
X14000Y14700D01*
X17200Y18900D02*
X17400Y19100D01*
X17500Y19000D02*
X18800D01*
X10200Y6100D02*
X11800D01*
X9550Y9950D02*
X11190D01*
X6800Y6700D02*
Y7600D01*
X7250Y8050D01*
X3200Y10200D02*
Y11700D01*
X10400Y23500D02*
X11800Y24900D01*
X10400Y20400D02*
Y23500D01*
X7250Y8050D02*
X8500D01*
X11190D01*
D20*
X4900Y21000D02*
X5000D01*
X17400Y43100D02*
X18600D01*
X16350Y42050D02*
X17400Y43100D01*
X8650Y41050D02*
X8700Y41000D01*
X6850Y41050D02*
X8650D01*
X6850Y41550D02*
X7750D01*
X8200Y42000D01*
X8900D01*
X9350Y41550D01*
X1325Y41325D02*
X1500Y41500D01*
X1325Y2375D02*
X2600Y1100D01*
X1325Y2375D02*
Y41325D01*
X5950Y41050D02*
X6850D01*
X5500Y40600D02*
X5950Y41050D01*
X1750Y34050D02*
X2100Y33700D01*
X1750Y34050D02*
Y40650D01*
X5650Y41550D02*
X6850D01*
X5500Y41400D02*
X5650Y41550D01*
X5450Y42050D02*
X6850D01*
X5400Y42000D02*
X5450Y42050D01*
X7850Y39050D02*
X8100Y39300D01*
X6850Y39050D02*
X7850D01*
X6850Y38550D02*
Y39050D01*
X2175Y34226D02*
X2525Y33876D01*
X2175Y34226D02*
Y39975D01*
X7950Y43550D02*
X8450Y44050D01*
X6850Y43550D02*
X7950D01*
X6850Y44050D02*
X8450D01*
X16680Y30640D02*
X19000D01*
X14680Y32640D02*
X16680Y30640D01*
X7060Y32640D02*
X9600D01*
X12140D01*
X14680D01*
Y30100D02*
X14870Y29910D01*
Y28170D02*
Y29910D01*
X12140Y30100D02*
X12270Y29970D01*
Y28170D02*
Y29970D01*
X9570Y30070D02*
X9600Y30100D01*
X9570Y28170D02*
Y30070D01*
X6870Y29910D02*
X7060Y30100D01*
X6870Y28170D02*
Y29910D01*
X6400Y20900D02*
X7970D01*
X8075Y21005D01*
Y19735D02*
Y21005D01*
X6300Y4900D02*
Y6700D01*
X5300Y4900D02*
Y6700D01*
X5800D02*
Y8100D01*
X5100Y8800D02*
X5800Y8100D01*
X3200Y8800D02*
X5100D01*
X5300Y15100D02*
Y16500D01*
X5600Y16800D01*
X3600Y18200D02*
X5600D01*
X5600Y18200D01*
X3600Y12700D02*
Y16800D01*
X6300Y10900D02*
X6300Y10900D01*
X6800Y12300D02*
X8000Y13500D01*
X6800Y10900D02*
Y12300D01*
X5800Y10900D02*
X5827Y10927D01*
X5500Y1100D02*
X6430Y2030D01*
X2600Y1100D02*
X5500D01*
X7700Y2030D02*
X8830Y900D01*
X18100D01*
X21000Y3800D01*
X5827Y10927D02*
Y13157D01*
X3700Y14300D02*
X11700D01*
X6300Y10900D02*
Y13200D01*
X5284Y13700D02*
X5827Y13157D01*
X4800Y10900D02*
Y11500D01*
X2400Y6060D02*
Y13200D01*
X4800Y13700D02*
X5284D01*
X3600Y12700D02*
X4800Y11500D01*
X2525Y33324D02*
Y33876D01*
X21000Y3800D02*
Y34000D01*
X20975Y34025D02*
X21000Y34000D01*
X19000Y26000D02*
Y28100D01*
X12000Y22600D02*
Y23900D01*
X12000Y23900D02*
X12000Y23900D01*
X8500Y10900D02*
X9400Y11800D01*
X8500Y8050D02*
Y10900D01*
X2200Y21600D02*
X3400D01*
X2200Y15700D02*
Y21600D01*
X2100Y33500D02*
Y33700D01*
X2200Y21600D02*
Y32999D01*
X2525Y33324D01*
X2700Y3900D02*
Y5760D01*
X2400Y6060D02*
X2700Y5760D01*
X5160Y3300D01*
X6900Y13500D02*
Y13577D01*
X13825Y6695D02*
X14695D01*
X13810Y6710D02*
X13825Y6695D01*
X4800Y12700D02*
X5300Y12200D01*
Y10900D02*
Y12200D01*
X13325Y19735D02*
X18135D01*
X19300Y20900D01*
Y21500D01*
D21*
X11748Y46700D02*
X12200Y46248D01*
X6900Y46412D02*
X8587D01*
X14540Y47460D02*
X16400Y45600D01*
X10060Y47888D02*
X10948Y47000D01*
X21200Y37991D02*
Y48654D01*
X12100Y35100D02*
X18309D01*
X20900Y38045D02*
Y48600D01*
X12500Y35400D02*
X18255D01*
X20650Y38148D02*
Y48404D01*
X13150Y35650D02*
X18152D01*
X20400Y38252D02*
Y48300D01*
X14600Y36100D02*
X18248D01*
X20400Y38252D01*
X18152Y35650D02*
X20650Y38148D01*
X18255Y35400D02*
X20900Y38045D01*
X18309Y35100D02*
X21200Y37991D01*
X17700Y51800D02*
X20900Y48600D01*
X17554Y51500D02*
X20650Y48404D01*
X19150Y42604D02*
Y43850D01*
X16596Y40050D02*
X19150Y42604D01*
X15050Y40050D02*
X16596D01*
X15820Y47180D02*
X19150Y43850D01*
X14600Y37200D02*
X15161D01*
X15050Y38550D02*
X16157D01*
X15050Y39050D02*
X16304D01*
X19650Y42396D01*
X16157Y38550D02*
X19900Y42293D01*
X15161Y37200D02*
X20150Y42189D01*
X20150Y44264D02*
Y48050D01*
X19900Y44161D02*
Y47700D01*
X20150Y44264D02*
X20150Y44264D01*
Y42189D02*
Y44264D01*
X19900Y44161D02*
X19900Y44161D01*
Y42293D02*
Y44161D01*
X19650Y44057D02*
Y47375D01*
Y44057D02*
X19650Y44057D01*
Y42396D02*
Y44057D01*
X19400Y42500D02*
Y43954D01*
X16450Y39550D02*
X19400Y42500D01*
X15050Y39550D02*
X16450D01*
X16460Y46894D02*
X19400Y43954D01*
X16725Y50300D02*
X19650Y47375D01*
X17000Y50600D02*
X19900Y47700D01*
X17300Y50900D02*
X20150Y48050D01*
X17500Y51200D02*
X20400Y48300D01*
X17804Y52050D02*
X21200Y48654D01*
X11700Y35500D02*
X12100Y35100D01*
X11700Y35500D02*
Y37200D01*
X13150Y39050D02*
X15050D01*
X5250Y43350D02*
Y44050D01*
X4950Y43050D02*
X5250Y43350D01*
X4950Y37650D02*
Y43050D01*
Y37650D02*
X5400Y37200D01*
X4700Y43493D02*
Y49685D01*
X5315Y50300D01*
X4700Y37300D02*
Y43493D01*
X13100Y39000D02*
X13150Y39050D01*
X11400Y38600D02*
X11700Y38300D01*
X8200Y38600D02*
X11400D01*
X13500Y38500D02*
X13550Y38550D01*
X15050D01*
X16460Y47140D02*
Y48320D01*
Y46894D02*
Y47140D01*
X15820Y47180D02*
Y47340D01*
Y48320D01*
X15180Y47420D02*
Y48320D01*
Y47368D02*
Y47420D01*
Y47368D02*
X16700Y45848D01*
X14100Y47352D02*
X16100Y45352D01*
X14100Y47352D02*
Y47400D01*
X16100Y43700D02*
Y45352D01*
X16700Y43300D02*
Y45848D01*
X13900Y47600D02*
X14100Y47400D01*
X15050Y45300D02*
Y45898D01*
Y44050D02*
Y45300D01*
X16400Y43400D02*
Y45600D01*
X15950Y43550D02*
X16100Y43700D01*
X16050Y43050D02*
X16400Y43400D01*
X15950Y42550D02*
X16700Y43300D01*
X13300Y50900D02*
X17300D01*
X14000Y50300D02*
X16725D01*
X12200Y35700D02*
X12500Y35400D01*
X12200Y35700D02*
Y37200D01*
X12900Y35900D02*
X13150Y35650D01*
X12700Y36100D02*
X12900Y35900D01*
X13400Y36100D02*
X14600D01*
X13200Y36300D02*
X13400Y36100D01*
X13700Y37200D02*
X14600D01*
X11700D02*
Y38300D01*
X2600Y38900D02*
Y50354D01*
Y37446D02*
Y38900D01*
X3100Y39500D02*
Y50500D01*
Y37300D02*
Y39500D01*
X3900Y37300D02*
Y42300D01*
X3500Y37346D02*
Y40100D01*
Y50200D01*
X3100Y37300D02*
X5600Y34800D01*
X3100Y50500D02*
X4100Y51500D01*
X3900Y42300D02*
Y50054D01*
X4300Y42900D02*
Y50100D01*
Y37346D02*
Y42900D01*
Y50100D02*
X4800Y50600D01*
X4300Y37346D02*
X5996Y35650D01*
X3900Y50054D02*
X4746Y50900D01*
X3900Y37300D02*
X5800Y35400D01*
X3500Y50200D02*
X4500Y51200D01*
X3500Y37346D02*
X5746Y35100D01*
X4700Y37300D02*
X6100Y35900D01*
X2600Y50354D02*
X4046Y51800D01*
X2600Y37446D02*
X5546Y34500D01*
X5200Y44100D02*
Y49220D01*
X5580Y49600D01*
X13260Y47688D02*
Y48320D01*
X13300Y47100D02*
X13700Y46700D01*
X12620Y47780D02*
X13300Y47100D01*
X13300D01*
X13260Y47688D02*
X15050Y45898D01*
X12400Y47300D02*
X13200Y46500D01*
X11980Y47720D02*
X12400Y47300D01*
X11600Y47448D02*
X12700Y46348D01*
X11340Y47708D02*
X11600Y47448D01*
X11340Y47708D02*
Y48320D01*
X10700Y47748D02*
X11748Y46700D01*
X11800D01*
X11700D02*
X11748D01*
X12700Y45400D02*
Y46348D01*
X10900Y47000D02*
X10948D01*
X10700Y47748D02*
Y48320D01*
X11200Y45400D02*
Y46152D01*
X10200Y47152D02*
X11200Y46152D01*
X10948Y47000D02*
X11700Y46248D01*
X12200Y45400D02*
Y46248D01*
X10200Y47152D02*
Y47200D01*
X10060Y47888D02*
Y48320D01*
X11700Y45400D02*
Y46248D01*
X9400Y47400D02*
X10700Y46100D01*
Y45400D02*
Y46100D01*
X9250Y47400D02*
X9400D01*
X9240Y47012D02*
X10200Y46052D01*
X9239Y47012D02*
X9240D01*
X9012Y47239D02*
X9239Y47012D01*
X9012Y47239D02*
Y47240D01*
X8952Y47300D02*
X9012Y47240D01*
X9420Y47980D02*
X10200Y47200D01*
X8800Y47000D02*
X9700Y46100D01*
X7900Y47000D02*
X8800D01*
X8400Y47300D02*
X8952D01*
X8654Y46700D02*
X9200Y46154D01*
X7300Y46700D02*
X8654D01*
X8700Y45400D02*
Y46300D01*
X8587Y46412D02*
X8700Y46300D01*
X8200Y47500D02*
X8400Y47300D01*
X10200Y45400D02*
Y46052D01*
X9700Y45400D02*
Y46100D01*
X9200Y45400D02*
Y46154D01*
X13200Y45400D02*
Y46500D01*
X11980Y47720D02*
Y48320D01*
X13700Y45400D02*
Y46700D01*
X12620Y47780D02*
Y48320D01*
X8780Y47870D02*
X9250Y47400D01*
X9420Y47980D02*
Y48320D01*
X8140Y47560D02*
X8200Y47500D01*
X7500Y47400D02*
X7900Y47000D01*
X6900Y47100D02*
X7300Y46700D01*
X6860Y47140D02*
X6900Y47100D01*
X6688Y46412D02*
X6900D01*
X6912Y46400D01*
X10550Y52050D02*
X17804D01*
X10060Y51560D02*
X10550Y52050D01*
X12300Y51800D02*
X17700D01*
X10700Y50200D02*
X12300Y51800D01*
X12600Y51500D02*
X17554D01*
X11340Y50240D02*
X12600Y51500D01*
X13000Y51200D02*
X17500D01*
X11980Y50180D02*
X13000Y51200D01*
X12620Y50220D02*
X13300Y50900D01*
X13600Y50600D02*
X17000D01*
X4046Y51800D02*
X8000D01*
X5746Y35100D02*
X9400D01*
X5800Y35400D02*
X9200D01*
X8604Y35650D02*
X9200Y36246D01*
X5996Y35650D02*
X8604D01*
X8500Y35900D02*
X8700Y36100D01*
X6100Y35900D02*
X8500D01*
X5546Y34500D02*
X9700D01*
X11200Y36000D01*
Y37200D01*
X10700Y35900D02*
Y37200D01*
X9600Y34800D02*
X10700Y35900D01*
X5600Y34800D02*
X9600D01*
X5400Y37200D02*
X8200D01*
X4746Y50900D02*
X6900D01*
X4800Y50600D02*
X6420D01*
X9400Y35100D02*
X10200Y35900D01*
Y37200D01*
X9700Y37200D02*
X9700Y37200D01*
X9700Y35900D02*
Y37200D01*
X9200Y35400D02*
X9700Y35900D01*
X5315Y50300D02*
X6000D01*
X6220Y50080D01*
X9200Y36246D02*
Y37200D01*
X8700Y36100D02*
Y37200D01*
X12700Y36100D02*
Y37200D01*
X13200Y36300D02*
Y37200D01*
X15050Y39550D02*
X15050Y39550D01*
X10060Y49600D02*
Y51560D01*
X10700Y49600D02*
Y50200D01*
X11340Y49600D02*
Y50240D01*
X11980Y49600D02*
Y50180D01*
X12620Y49600D02*
Y50220D01*
X13300Y50300D02*
X13600Y50600D01*
X13300Y49640D02*
Y50300D01*
X13260Y49600D02*
X13300Y49640D01*
X13900Y50200D02*
X14000Y50300D01*
X13900Y49600D02*
Y50200D01*
X8000Y51800D02*
X9420Y50380D01*
Y49600D02*
Y50380D01*
X8780Y49600D02*
Y50280D01*
X7560Y51500D02*
X8780Y50280D01*
X8140Y49600D02*
Y50160D01*
X7100Y51200D02*
X8140Y50160D01*
X4100Y51500D02*
X7560D01*
X7500Y49600D02*
Y50300D01*
X6900Y50900D02*
X7500Y50300D01*
X4500Y51200D02*
X7100D01*
X6860Y49600D02*
Y50160D01*
X6420Y50600D02*
X6860Y50160D01*
X6220Y49600D02*
Y50080D01*
X15050Y42550D02*
X15950D01*
X14540Y47460D02*
Y48320D01*
X15050Y43050D02*
X16050D01*
X13900Y47600D02*
Y48320D01*
X15050Y43550D02*
X15950D01*
X8780Y47870D02*
Y48320D01*
X6860Y47140D02*
Y48320D01*
X7500Y47400D02*
Y48320D01*
X8140Y47560D02*
Y48320D01*
X6220Y46880D02*
Y48320D01*
Y46880D02*
X6688Y46412D01*
X5580Y47120D02*
Y48320D01*
Y47120D02*
X7300Y45400D01*
X8200D01*
D22*
X8075Y17195D02*
X9895D01*
X8970Y3300D02*
X10800D01*
X3230Y2030D02*
X5160D01*
X4100Y29700D02*
Y31100D01*
X4100Y23900D02*
Y25175D01*
Y26625D02*
Y28300D01*
X4100Y28300D02*
X4100Y28300D01*
D23*
X11700Y14300D02*
D03*
X3600Y34500D02*
D03*
X3400Y21600D02*
D03*
X19300Y21500D02*
D03*
X9400Y11800D02*
D03*
X17600Y2900D02*
D03*
X15200Y2300D02*
D03*
X12800Y2800D02*
D03*
X2700Y3900D02*
D03*
D24*
X8970Y3300D02*
D03*
D25*
Y2030D02*
D03*
X7700Y3300D02*
D03*
Y2030D02*
D03*
X6430Y3300D02*
D03*
Y2030D02*
D03*
X5160Y3300D02*
D03*
Y2030D02*
D03*
D26*
X1400Y43420D02*
D03*
Y45960D02*
D03*
Y48500D02*
D03*
X14680Y32640D02*
D03*
X12140D02*
D03*
X9600D02*
D03*
X7060D02*
D03*
X14680Y30100D02*
D03*
X12140D02*
D03*
X9600D02*
D03*
X19000Y28100D02*
D03*
D27*
X1400Y51040D02*
D03*
X19000Y30640D02*
D03*
D28*
X7060Y30100D02*
D03*
D29*
X18600Y43100D02*
D03*
X16350Y42050D02*
D03*
X18700Y37100D02*
D03*
X16300D02*
D03*
Y41200D02*
D03*
X8700Y41000D02*
D03*
X9350Y41550D02*
D03*
X1750Y40650D02*
D03*
X5500Y40600D02*
D03*
X2175Y39975D02*
D03*
X5500Y41400D02*
D03*
X5400Y42000D02*
D03*
X5250Y44050D02*
D03*
X4700Y43493D02*
D03*
X1500Y41500D02*
D03*
X8400D02*
D03*
X13350Y44050D02*
D03*
X13400Y39600D02*
D03*
X8200Y38600D02*
D03*
X13100Y39000D02*
D03*
X13500Y38500D02*
D03*
X8100Y39300D02*
D03*
X16460Y47140D02*
D03*
X15820Y47340D02*
D03*
X12200Y35700D02*
D03*
X15180Y47420D02*
D03*
X15300Y46700D02*
D03*
X14100Y47400D02*
D03*
X15050Y45300D02*
D03*
X12900Y35900D02*
D03*
X14600Y36100D02*
D03*
Y37200D02*
D03*
X2600Y38900D02*
D03*
X3100Y39500D02*
D03*
X3500Y40100D02*
D03*
X3900Y42300D02*
D03*
X4300Y42900D02*
D03*
X13300Y47100D02*
D03*
X12400Y47300D02*
D03*
X11600Y47448D02*
D03*
X11800Y46700D02*
D03*
X10900Y47000D02*
D03*
X10200Y47200D02*
D03*
X9400Y47400D02*
D03*
X8200Y47500D02*
D03*
X7500Y47400D02*
D03*
X6900Y47100D02*
D03*
X6912Y46400D02*
D03*
X7300Y45400D02*
D03*
X8450Y44050D02*
D03*
X6300Y4900D02*
D03*
X5300D02*
D03*
X8000Y13500D02*
D03*
X6300Y13200D02*
D03*
X2400D02*
D03*
X4800Y13700D02*
D03*
X2200Y15700D02*
D03*
X20975Y34025D02*
D03*
X12000Y23900D02*
D03*
X2100Y33500D02*
D03*
D30*
X10400Y20400D02*
D03*
X14870Y25070D02*
D03*
X11000Y16000D02*
D03*
X6700Y16200D02*
D03*
X16600Y21300D02*
D03*
X14895Y21005D02*
D03*
X5005Y22905D02*
D03*
X18800Y19000D02*
D03*
X17235Y11735D02*
D03*
X15500Y5700D02*
D03*
X10200Y6100D02*
D03*
X9550Y9950D02*
D03*
X14695Y6695D02*
D03*
X3200Y11700D02*
D03*
X4800Y12700D02*
D03*
X11800Y24900D02*
D03*
X4100Y31100D02*
D03*
X4100Y23900D02*
D03*
X8200Y23700D02*
D03*
D31*
X9895Y17195D02*
D03*
X10800Y3300D02*
D03*
X3230Y2030D02*
D03*
X19000Y26000D02*
D03*
M02*
