M48
;Layer_Color=9474304
;FILE_FORMAT=4:3
METRIC,LZ
;TYPE=PLATED
T1F00S00C0.200
T2F00S00C0.400
T3F00S00C0.711
T4F00S00C0.900
T5F00S00C1.000
%
T01
X00053Y00049
X00063
X00063Y00132
X00146Y00361
Y00372
X00163Y00371
X00187
X0020975Y0034025
X00186Y00431
X00187Y00457
X00193Y00463
X00198Y00474
X00202Y00482
X002065Y00489
X00211Y00476
X00168Y00468
X00162Y00473
X0015348Y00472
X0015448Y00466
X0015552Y00459
X001505Y00453
X001335Y004405
X00135Y00469
X00134Y00396
X00135Y00385
X00163Y00412
X001635Y004205
X00131Y0039
X00129Y00359
X00122Y00357
X00082Y00386
X00081Y00393
X00087Y0041
X00084Y00415
X000935Y004155
X000845Y004405
X00073Y00454
X0006912Y00464
X000682Y00471
X00075
X00084Y00473
X00096Y00472
X00102Y00472
X00109Y0047
X00118Y0047248
Y00467
X00127Y0047
X000525Y004405
X00047Y0043493
X00043Y00429
X00039Y00423
X00054Y0042
X00055Y00414
Y00406
X00035Y00401
X00031Y00395
X00026Y00389
X0002175Y0039975
X000175Y004065
X00015Y00415
X00021Y00335
X00022Y00157
X00048Y00137
X0008Y00135
X0012Y00239
T02
X00032Y00117
X00048Y00127
X000955Y000995
X00102Y00061
X0014695Y0006695
X00155Y00057
X0017235Y0011735
X00196Y00183
X00166Y00213
X0014895Y0021005
X00126Y00246
X00082Y00237
X0005005Y0022905
X00041Y00239
X00041Y00311
X00069Y00162
X0011Y0016
T03
X000134Y000106
X0013Y00036
X0019Y0026
X0009895Y0017195
T04
X000356Y000106
Y00036
X00061
Y000106
X000864
Y00036
X001118
Y000106
X001492Y00304
Y003294
X0019Y003064
Y00281
X001238Y00304
Y003294
X000984
Y00304
X00073
Y003294
T05
X00024Y00132
X00094Y00118
X00147Y00029
X00172
X00195
X00193Y00215
X00117Y00143
X00034Y00216
X00036Y00345
M30
