G04 Layer_Color=8421504*
%FSLAX43Y43*%
%MOMM*%
G71*
G01*
G75*
%ADD10R,0.900X0.800*%
%ADD11R,0.800X0.600*%
%ADD12R,0.800X0.900*%
G04:AMPARAMS|DCode=13|XSize=0.55mm|YSize=1.25mm|CornerRadius=0.05mm|HoleSize=0mm|Usage=FLASHONLY|Rotation=90.000|XOffset=0mm|YOffset=0mm|HoleType=Round|Shape=RoundedRectangle|*
%AMROUNDEDRECTD13*
21,1,0.550,1.151,0,0,90.0*
21,1,0.451,1.250,0,0,90.0*
1,1,0.099,0.576,0.226*
1,1,0.099,0.576,-0.226*
1,1,0.099,-0.576,-0.226*
1,1,0.099,-0.576,0.226*
%
%ADD13ROUNDEDRECTD13*%
%ADD14O,0.300X2.000*%
%ADD15R,1.220X0.620*%
%ADD16R,0.380X1.020*%
%ADD17O,1.650X0.300*%
%ADD18O,0.300X1.650*%
D10*
X14870Y26770D02*
D03*
Y28170D02*
D03*
X12270Y28170D02*
D03*
Y26770D02*
D03*
X9570Y28170D02*
D03*
Y26770D02*
D03*
X6870Y28170D02*
D03*
Y26770D02*
D03*
X4100Y29700D02*
D03*
Y28300D02*
D03*
X5600Y16800D02*
D03*
Y18200D02*
D03*
X3600Y18200D02*
D03*
Y16800D02*
D03*
X15700Y16400D02*
D03*
Y15000D02*
D03*
X3200Y8800D02*
D03*
Y10200D02*
D03*
X16800Y9700D02*
D03*
Y8300D02*
D03*
D11*
X4100Y25175D02*
D03*
Y26625D02*
D03*
D12*
X13400Y22600D02*
D03*
X12000D02*
D03*
X5000Y20900D02*
D03*
X6400D02*
D03*
X8300Y15600D02*
D03*
X9700D02*
D03*
X5300Y15100D02*
D03*
X6700D02*
D03*
X17200Y18900D02*
D03*
X15800D02*
D03*
X13200Y6100D02*
D03*
X11800D02*
D03*
D13*
X8075Y21005D02*
D03*
Y19735D02*
D03*
Y18465D02*
D03*
Y17195D02*
D03*
X13325Y21005D02*
D03*
Y19735D02*
D03*
Y18465D02*
D03*
Y17195D02*
D03*
D14*
X6800Y10900D02*
D03*
X6300D02*
D03*
X5800D02*
D03*
X5300D02*
D03*
X4800D02*
D03*
X6800Y6700D02*
D03*
X6300D02*
D03*
X5800D02*
D03*
X5300D02*
D03*
X4800D02*
D03*
D15*
X13810Y8050D02*
D03*
Y9000D02*
D03*
Y9950D02*
D03*
X11190D02*
D03*
Y8050D02*
D03*
D16*
X16460Y49600D02*
D03*
X15820D02*
D03*
X15180D02*
D03*
X14540D02*
D03*
X13900D02*
D03*
X13260D02*
D03*
X12620D02*
D03*
X11980D02*
D03*
X11340D02*
D03*
X10700D02*
D03*
X10060D02*
D03*
X9420D02*
D03*
X8780D02*
D03*
X8140D02*
D03*
X7500D02*
D03*
X6860D02*
D03*
X6220D02*
D03*
X5580D02*
D03*
X16460Y48320D02*
D03*
X15820D02*
D03*
X15180D02*
D03*
X14540D02*
D03*
X13900D02*
D03*
X13260D02*
D03*
X12620D02*
D03*
X11980D02*
D03*
X11340D02*
D03*
X10700D02*
D03*
X10060D02*
D03*
X9420D02*
D03*
X8780D02*
D03*
X8140D02*
D03*
X7500D02*
D03*
X6860D02*
D03*
X6220D02*
D03*
X5580D02*
D03*
D17*
X15050Y44050D02*
D03*
Y43550D02*
D03*
Y43050D02*
D03*
Y42550D02*
D03*
Y42050D02*
D03*
Y41550D02*
D03*
Y41050D02*
D03*
Y40550D02*
D03*
Y40050D02*
D03*
Y39550D02*
D03*
Y39050D02*
D03*
Y38550D02*
D03*
X6850D02*
D03*
Y39050D02*
D03*
Y39550D02*
D03*
Y40050D02*
D03*
Y40550D02*
D03*
Y41050D02*
D03*
Y41550D02*
D03*
Y42050D02*
D03*
Y42550D02*
D03*
Y43050D02*
D03*
Y43550D02*
D03*
Y44050D02*
D03*
D18*
X13700Y37200D02*
D03*
X13200D02*
D03*
X12700D02*
D03*
X12200D02*
D03*
X11700D02*
D03*
X11200D02*
D03*
X10700D02*
D03*
X10200D02*
D03*
X9700D02*
D03*
X9200D02*
D03*
X8700D02*
D03*
X8200D02*
D03*
Y45400D02*
D03*
X8700D02*
D03*
X9200D02*
D03*
X9700D02*
D03*
X10200D02*
D03*
X10700D02*
D03*
X11200D02*
D03*
X11700D02*
D03*
X12200D02*
D03*
X12700D02*
D03*
X13200D02*
D03*
X13700D02*
D03*
M02*
