G04 Layer_Color=8388736*
%FSLAX43Y43*%
%MOMM*%
G71*
G01*
G75*
%ADD45R,1.003X0.803*%
G04:AMPARAMS|DCode=46|XSize=0.753mm|YSize=1.453mm|CornerRadius=0.151mm|HoleSize=0mm|Usage=FLASHONLY|Rotation=90.000|XOffset=0mm|YOffset=0mm|HoleType=Round|Shape=RoundedRectangle|*
%AMROUNDEDRECTD46*
21,1,0.753,1.151,0,0,90.0*
21,1,0.451,1.453,0,0,90.0*
1,1,0.302,0.576,0.226*
1,1,0.302,0.576,-0.226*
1,1,0.302,-0.576,-0.226*
1,1,0.302,-0.576,0.226*
%
%ADD46ROUNDEDRECTD46*%
%ADD47O,0.503X2.203*%
%ADD48R,1.423X0.823*%
%ADD49O,1.853X0.503*%
%ADD50O,0.503X1.853*%
%ADD51R,1.003X1.103*%
%ADD52R,1.703X1.603*%
%ADD53R,1.103X1.003*%
%ADD54C,1.727*%
%ADD55C,1.703*%
%ADD56R,1.703X1.703*%
%ADD57R,1.703X1.703*%
%ADD58C,0.603*%
%ADD59C,1.003*%
%ADD60C,1.473*%
D45*
X4100Y25175D02*
D03*
Y26625D02*
D03*
D46*
X8075Y21005D02*
D03*
Y19735D02*
D03*
Y18465D02*
D03*
Y17195D02*
D03*
X13325Y21005D02*
D03*
Y19735D02*
D03*
Y18465D02*
D03*
Y17195D02*
D03*
D47*
X6800Y10900D02*
D03*
X6300D02*
D03*
X5800D02*
D03*
X5300D02*
D03*
X4800D02*
D03*
X6800Y6700D02*
D03*
X6300D02*
D03*
X5800D02*
D03*
X5300D02*
D03*
X4800D02*
D03*
D48*
X13810Y8050D02*
D03*
Y9000D02*
D03*
Y9950D02*
D03*
X11190D02*
D03*
Y8050D02*
D03*
D49*
X15050Y44050D02*
D03*
Y43550D02*
D03*
Y43050D02*
D03*
Y42550D02*
D03*
Y42050D02*
D03*
Y41550D02*
D03*
Y41050D02*
D03*
Y40550D02*
D03*
Y40050D02*
D03*
Y39550D02*
D03*
Y39050D02*
D03*
Y38550D02*
D03*
X6850D02*
D03*
Y39050D02*
D03*
Y39550D02*
D03*
Y40050D02*
D03*
Y40550D02*
D03*
Y41050D02*
D03*
Y41550D02*
D03*
Y42050D02*
D03*
Y42550D02*
D03*
Y43050D02*
D03*
Y43550D02*
D03*
Y44050D02*
D03*
D50*
X13700Y37200D02*
D03*
X13200D02*
D03*
X12700D02*
D03*
X12200D02*
D03*
X11700D02*
D03*
X11200D02*
D03*
X10700D02*
D03*
X10200D02*
D03*
X9700D02*
D03*
X9200D02*
D03*
X8700D02*
D03*
X8200D02*
D03*
Y45400D02*
D03*
X8700D02*
D03*
X9200D02*
D03*
X9700D02*
D03*
X10200D02*
D03*
X10700D02*
D03*
X11200D02*
D03*
X11700D02*
D03*
X12200D02*
D03*
X12700D02*
D03*
X13200D02*
D03*
X13700D02*
D03*
D51*
X13200Y6100D02*
D03*
X11800D02*
D03*
X5300Y15100D02*
D03*
X6700D02*
D03*
X8300Y15600D02*
D03*
X9700D02*
D03*
X5000Y20900D02*
D03*
X6400D02*
D03*
X17200Y18900D02*
D03*
X15800D02*
D03*
X13400Y22600D02*
D03*
X12000D02*
D03*
D52*
X16800Y8000D02*
D03*
Y10000D02*
D03*
X3600Y16800D02*
D03*
Y18800D02*
D03*
X5600D02*
D03*
Y16800D02*
D03*
X15700Y14700D02*
D03*
Y16700D02*
D03*
X4100Y28000D02*
D03*
Y30000D02*
D03*
X15300Y28200D02*
D03*
Y26200D02*
D03*
X12600D02*
D03*
Y28200D02*
D03*
X9800Y26200D02*
D03*
Y28200D02*
D03*
X7000Y26200D02*
D03*
Y28200D02*
D03*
D53*
X3200Y8800D02*
D03*
Y10200D02*
D03*
D54*
X11700Y14300D02*
D03*
X3600Y34500D02*
D03*
X3400Y21600D02*
D03*
X19300Y21500D02*
D03*
X9400Y11800D02*
D03*
X19500Y2900D02*
D03*
X17200D02*
D03*
X14700D02*
D03*
X2400Y13200D02*
D03*
D55*
X7300Y30400D02*
D03*
Y32940D02*
D03*
X9840Y30400D02*
D03*
Y32940D02*
D03*
X12380Y30400D02*
D03*
Y32940D02*
D03*
X14920Y30400D02*
D03*
X19000Y28100D02*
D03*
X11180Y1060D02*
D03*
X8640Y3600D02*
D03*
Y1060D02*
D03*
X6100Y3600D02*
D03*
Y1060D02*
D03*
X3560Y3600D02*
D03*
Y1060D02*
D03*
D56*
X14920Y32940D02*
D03*
X11180Y3600D02*
D03*
D57*
X19000Y30640D02*
D03*
D58*
X21100Y47600D02*
D03*
X20650Y48900D02*
D03*
X20200Y48200D02*
D03*
X19800Y47400D02*
D03*
X19300Y46300D02*
D03*
X18700Y45700D02*
D03*
X15348Y47200D02*
D03*
X18600Y43100D02*
D03*
X16350Y42050D02*
D03*
X18700Y37100D02*
D03*
X16300D02*
D03*
Y41200D02*
D03*
X8700Y41000D02*
D03*
X9350Y41550D02*
D03*
X1750Y40650D02*
D03*
X5500Y40600D02*
D03*
X2175Y39975D02*
D03*
X5500Y41400D02*
D03*
X5400Y42000D02*
D03*
X5250Y44050D02*
D03*
X4700Y43493D02*
D03*
X1500Y41500D02*
D03*
X8400D02*
D03*
X13350Y44050D02*
D03*
X13400Y39600D02*
D03*
X8200Y38600D02*
D03*
X13100Y39000D02*
D03*
X13500Y38500D02*
D03*
X8100Y39300D02*
D03*
X12200Y35700D02*
D03*
X15050Y45300D02*
D03*
X12900Y35900D02*
D03*
X14600Y36100D02*
D03*
Y37200D02*
D03*
X2600Y38900D02*
D03*
X3100Y39500D02*
D03*
X3500Y40100D02*
D03*
X3900Y42300D02*
D03*
X4300Y42900D02*
D03*
X7300Y45400D02*
D03*
X8450Y44050D02*
D03*
X6300Y4900D02*
D03*
X5300D02*
D03*
X8000Y13500D02*
D03*
X6300Y13200D02*
D03*
X4800Y13700D02*
D03*
X2200Y15700D02*
D03*
X20975Y34025D02*
D03*
X12000Y23900D02*
D03*
X2100Y33500D02*
D03*
X13500Y46900D02*
D03*
X11800Y47248D02*
D03*
X12700Y47000D02*
D03*
X11800Y46700D02*
D03*
X10900Y47000D02*
D03*
X10200Y47200D02*
D03*
X16800Y46800D02*
D03*
X15552Y45900D02*
D03*
X15448Y46600D02*
D03*
X16200Y47300D02*
D03*
X7500Y47100D02*
D03*
X9600Y47200D02*
D03*
X8400Y47300D02*
D03*
X6912Y46400D02*
D03*
X6820Y47100D02*
D03*
D59*
X6900Y16200D02*
D03*
X11000Y16000D02*
D03*
X16600Y21300D02*
D03*
X14895Y21005D02*
D03*
X5005Y22905D02*
D03*
X18800Y19000D02*
D03*
X17235Y11735D02*
D03*
X15500Y5700D02*
D03*
X10200Y6100D02*
D03*
X9550Y9950D02*
D03*
X14695Y6695D02*
D03*
X3200Y11700D02*
D03*
X4800Y12700D02*
D03*
X4100Y31100D02*
D03*
X4100Y23900D02*
D03*
X8200Y23700D02*
D03*
X12600Y24600D02*
D03*
D60*
X9895Y17195D02*
D03*
X19000Y26000D02*
D03*
X13000Y3600D02*
D03*
X1340Y1060D02*
D03*
M02*
