G04 Layer_Color=8421504*
%FSLAX43Y43*%
%MOMM*%
G71*
G01*
G75*
%ADD10R,1.500X1.400*%
%ADD11R,0.800X0.900*%
%ADD12R,0.900X0.800*%
%ADD13R,1.400X1.500*%
%ADD14O,0.300X1.650*%
%ADD15O,1.650X0.300*%
%ADD16R,0.380X1.020*%
%ADD17R,1.220X0.620*%
%ADD18O,0.300X2.000*%
G04:AMPARAMS|DCode=19|XSize=0.55mm|YSize=1.25mm|CornerRadius=0.05mm|HoleSize=0mm|Usage=FLASHONLY|Rotation=90.000|XOffset=0mm|YOffset=0mm|HoleType=Round|Shape=RoundedRectangle|*
%AMROUNDEDRECTD19*
21,1,0.550,1.151,0,0,90.0*
21,1,0.451,1.250,0,0,90.0*
1,1,0.099,0.576,0.226*
1,1,0.099,0.576,-0.226*
1,1,0.099,-0.576,-0.226*
1,1,0.099,-0.576,0.226*
%
%ADD19ROUNDEDRECTD19*%
%ADD20R,0.800X0.600*%
D10*
X7000Y28200D02*
D03*
Y26200D02*
D03*
X9800Y28200D02*
D03*
Y26200D02*
D03*
X12600Y28200D02*
D03*
Y26200D02*
D03*
X15300D02*
D03*
Y28200D02*
D03*
X4100Y30000D02*
D03*
Y28000D02*
D03*
X5600Y16800D02*
D03*
Y18800D02*
D03*
X3600D02*
D03*
Y16800D02*
D03*
X16800Y10000D02*
D03*
Y8000D02*
D03*
D11*
X12000Y22600D02*
D03*
X13400D02*
D03*
X6400Y20900D02*
D03*
X5000D02*
D03*
X9700Y15600D02*
D03*
X8300D02*
D03*
X6700Y15100D02*
D03*
X5300D02*
D03*
X11800Y6100D02*
D03*
X13200D02*
D03*
D12*
X15400Y14600D02*
D03*
Y16000D02*
D03*
X3200Y10200D02*
D03*
Y8800D02*
D03*
D13*
X15700Y17900D02*
D03*
X17700D02*
D03*
D14*
X13700Y45400D02*
D03*
X13200D02*
D03*
X12700D02*
D03*
X12200D02*
D03*
X11700D02*
D03*
X11200D02*
D03*
X10700D02*
D03*
X10200D02*
D03*
X9700D02*
D03*
X9200D02*
D03*
X8700D02*
D03*
X8200D02*
D03*
Y37200D02*
D03*
X8700D02*
D03*
X9200D02*
D03*
X9700D02*
D03*
X10200D02*
D03*
X10700D02*
D03*
X11200D02*
D03*
X11700D02*
D03*
X12200D02*
D03*
X12700D02*
D03*
X13200D02*
D03*
X13700D02*
D03*
D15*
X6850Y44050D02*
D03*
Y43550D02*
D03*
Y43050D02*
D03*
Y42550D02*
D03*
Y42050D02*
D03*
Y41550D02*
D03*
Y41050D02*
D03*
Y40550D02*
D03*
Y40050D02*
D03*
Y39550D02*
D03*
Y39050D02*
D03*
Y38550D02*
D03*
X15050D02*
D03*
Y39050D02*
D03*
Y39550D02*
D03*
Y40050D02*
D03*
Y40550D02*
D03*
Y41050D02*
D03*
Y41550D02*
D03*
Y42050D02*
D03*
Y42550D02*
D03*
Y43050D02*
D03*
Y43550D02*
D03*
Y44050D02*
D03*
D16*
X4960Y48300D02*
D03*
X5600D02*
D03*
X6240D02*
D03*
X6880D02*
D03*
X7520D02*
D03*
X8160D02*
D03*
X8800D02*
D03*
X9440D02*
D03*
X10080D02*
D03*
X10720D02*
D03*
X11360D02*
D03*
X12000D02*
D03*
X12640D02*
D03*
X13280D02*
D03*
X13920D02*
D03*
X14560D02*
D03*
X15200D02*
D03*
X15840D02*
D03*
X4960Y49580D02*
D03*
X5600D02*
D03*
X6240D02*
D03*
X6880D02*
D03*
X7520D02*
D03*
X8160D02*
D03*
X8800D02*
D03*
X9440D02*
D03*
X10080D02*
D03*
X10720D02*
D03*
X11360D02*
D03*
X12000D02*
D03*
X12640D02*
D03*
X13280D02*
D03*
X13920D02*
D03*
X14560D02*
D03*
X15200D02*
D03*
X15840D02*
D03*
D17*
X11190Y8050D02*
D03*
Y9950D02*
D03*
X13810D02*
D03*
Y9000D02*
D03*
Y8050D02*
D03*
D18*
X4800Y6700D02*
D03*
X5300D02*
D03*
X5800D02*
D03*
X6300D02*
D03*
X6800D02*
D03*
X4800Y10900D02*
D03*
X5300D02*
D03*
X5800D02*
D03*
X6300D02*
D03*
X6800D02*
D03*
D19*
X13325Y17195D02*
D03*
Y18465D02*
D03*
Y19735D02*
D03*
Y21005D02*
D03*
X8075Y17195D02*
D03*
Y18465D02*
D03*
Y19735D02*
D03*
Y21005D02*
D03*
D20*
X4100Y26625D02*
D03*
Y25175D02*
D03*
M02*
