G04 Layer_Color=32768*
%FSLAX43Y43*%
%MOMM*%
G71*
G01*
G75*
%ADD65C,0.100*%
%ADD66C,0.050*%
D65*
X8700Y24450D02*
Y25550D01*
X6300Y24450D02*
Y25550D01*
X8700D01*
X6300Y24450D02*
X8700D01*
X7025Y25000D02*
X7975D01*
X7500Y24525D02*
Y25475D01*
X15800Y26250D02*
Y28750D01*
X11400Y26250D02*
Y28750D01*
X15800D01*
X11400Y26250D02*
X15800D01*
X13100Y27500D02*
X14100D01*
X13600Y27000D02*
Y28000D01*
X6500Y27200D02*
X7500D01*
X7000Y26700D02*
Y27700D01*
X8250Y25000D02*
Y29400D01*
X5750Y25000D02*
Y29400D01*
X8250D01*
X5750Y25000D02*
X8250D01*
X9300Y27200D02*
X10300D01*
X9800Y26700D02*
Y27700D01*
X11050Y25000D02*
Y29400D01*
X8550Y25000D02*
Y29400D01*
X11050D01*
X8550Y25000D02*
X11050D01*
X12100Y27200D02*
X13100D01*
X12600Y26700D02*
Y27700D01*
X13850Y25000D02*
Y29400D01*
X11350Y25000D02*
Y29400D01*
X13850D01*
X11350Y25000D02*
X13850D01*
X14800Y27200D02*
X15800D01*
X15300Y26700D02*
Y27700D01*
X14050Y25000D02*
Y29400D01*
X16550Y25000D02*
Y29400D01*
X14050Y25000D02*
X16550D01*
X14050Y29400D02*
X16550D01*
X3600Y29000D02*
X4600D01*
X4100Y28500D02*
Y29500D01*
X5350Y26800D02*
Y31200D01*
X2850Y26800D02*
Y31200D01*
X5350D01*
X2850Y26800D02*
X5350D01*
X11500Y22050D02*
Y23150D01*
X13900Y22050D02*
Y23150D01*
X11500D02*
X13900D01*
X11500Y22050D02*
X13900D01*
X12225Y22600D02*
X13175D01*
X12700Y22125D02*
Y23075D01*
X14850Y14100D02*
X15950D01*
X14850Y16500D02*
X15950D01*
X14850Y14100D02*
Y16500D01*
X15950Y14100D02*
Y16500D01*
X15400Y14825D02*
Y15775D01*
X14925Y15300D02*
X15875D01*
X16700Y17400D02*
Y18400D01*
X16200Y17900D02*
X17200D01*
X14500Y19150D02*
X18900D01*
X14500Y16650D02*
X18900D01*
X14500D02*
Y19150D01*
X18900Y16650D02*
Y19150D01*
X6900Y20350D02*
Y21450D01*
X4500Y20350D02*
Y21450D01*
Y20350D02*
X6900D01*
X4500Y21450D02*
X6900D01*
X5225Y20900D02*
X6175D01*
X5700Y20425D02*
Y21375D01*
X5100Y17800D02*
X6100D01*
X5600Y17300D02*
Y18300D01*
X4350Y15600D02*
Y20000D01*
X6850Y15600D02*
Y20000D01*
X4350Y15600D02*
X6850D01*
X4350Y20000D02*
X6850D01*
X3100Y17800D02*
X4100D01*
X3600Y17300D02*
Y18300D01*
X4850Y15600D02*
Y20000D01*
X2350Y15600D02*
Y20000D01*
X4850D01*
X2350Y15600D02*
X4850D01*
X10200Y15050D02*
Y16150D01*
X7800Y15050D02*
Y16150D01*
Y15050D02*
X10200D01*
X7800Y16150D02*
X10200D01*
X8525Y15600D02*
X9475D01*
X9000Y15125D02*
Y16075D01*
X7200Y14550D02*
Y15650D01*
X4800Y14550D02*
Y15650D01*
Y14550D02*
X7200D01*
X4800Y15650D02*
X7200D01*
X5525Y15100D02*
X6475D01*
X6000Y14625D02*
Y15575D01*
X2650Y10700D02*
X3750D01*
X2650Y8300D02*
X3750D01*
Y10700D01*
X2650Y8300D02*
Y10700D01*
X3200Y9025D02*
Y9975D01*
X2725Y9500D02*
X3675D01*
X16300Y9000D02*
X17300D01*
X16800Y8500D02*
Y9500D01*
X18050Y6800D02*
Y11200D01*
X15550Y6800D02*
Y11200D01*
X18050D01*
X15550Y6800D02*
X18050D01*
X11300Y5550D02*
Y6650D01*
X13700Y5550D02*
Y6650D01*
X11300D02*
X13700D01*
X11300Y5550D02*
X13700D01*
X12025Y6100D02*
X12975D01*
X12500Y5625D02*
Y6575D01*
X9500Y20500D02*
Y21500D01*
X9000Y21000D02*
X10000D01*
X1350Y5200D02*
X3850D01*
X1350Y9600D02*
X3850D01*
Y5200D02*
Y9600D01*
X1350Y5200D02*
Y9600D01*
X2600Y6900D02*
Y7900D01*
X2100Y7400D02*
X3100D01*
X10950Y40800D02*
Y41800D01*
X10450Y41300D02*
X11450D01*
X16100Y11200D02*
X17100D01*
X16600Y10700D02*
Y11700D01*
X10900Y40800D02*
Y41800D01*
X10400Y41300D02*
X11400D01*
X12500Y8500D02*
Y9500D01*
X12000Y9000D02*
X13000D01*
X5800Y8300D02*
Y9300D01*
X5300Y8800D02*
X6300D01*
X10700Y18600D02*
Y19600D01*
X10200Y19100D02*
X11200D01*
X3850Y25900D02*
X4350D01*
X4100Y25650D02*
Y26150D01*
X7000Y6750D02*
Y7850D01*
X4600Y6750D02*
Y7850D01*
X7000D01*
X4600Y6750D02*
X7000D01*
X5325Y7300D02*
X6275D01*
X5800Y6825D02*
Y7775D01*
X7000Y8150D02*
Y9250D01*
X4600Y8150D02*
Y9250D01*
X7000D01*
X4600Y8150D02*
X7000D01*
X5325Y8700D02*
X6275D01*
X5800Y8225D02*
Y9175D01*
X7000Y9750D02*
Y10850D01*
X4600Y9750D02*
Y10850D01*
X7000D01*
X4600Y9750D02*
X7000D01*
X5325Y10300D02*
X6275D01*
X5800Y9825D02*
Y10775D01*
X16600Y5150D02*
Y6250D01*
X19000Y5150D02*
Y6250D01*
X16600Y5150D02*
X19000D01*
X16600Y6250D02*
X19000D01*
X17325Y5700D02*
X18275D01*
X17800Y5225D02*
Y6175D01*
X18600Y16050D02*
Y17150D01*
X16200Y16050D02*
Y17150D01*
X18600D01*
X16200Y16050D02*
X18600D01*
X16925Y16600D02*
X17875D01*
X17400Y16125D02*
Y17075D01*
X11650Y15600D02*
X12750D01*
X11650Y18000D02*
X12750D01*
Y15600D02*
Y18000D01*
X11650Y15600D02*
Y18000D01*
X12200Y16325D02*
Y17275D01*
X11725Y16800D02*
X12675D01*
X8700Y27000D02*
Y28000D01*
X8200Y27500D02*
X9200D01*
X6500Y26250D02*
X10900D01*
X6500Y28750D02*
X10900D01*
X6500Y26250D02*
Y28750D01*
X10900Y26250D02*
Y28750D01*
X15900Y19200D02*
Y20200D01*
X15400Y19700D02*
X16400D01*
X13700Y18450D02*
X18100D01*
X13700Y20950D02*
X18100D01*
X13700Y18450D02*
Y20950D01*
X18100Y18450D02*
Y20950D01*
X15900Y22400D02*
Y23400D01*
X15400Y22900D02*
X16400D01*
X13700Y21650D02*
X18100D01*
X13700Y24150D02*
X18100D01*
X13700Y21650D02*
Y24150D01*
X18100Y21650D02*
Y24150D01*
D66*
X6150Y18400D02*
X12850D01*
X6150Y23600D02*
X12850D01*
X6150Y18400D02*
Y23600D01*
X12850Y18400D02*
Y23600D01*
X5800Y46450D02*
X16100D01*
X5800Y36150D02*
X16100D01*
Y46450D01*
X5800Y36150D02*
Y46450D01*
X19650Y7000D02*
Y15400D01*
X13550Y7000D02*
Y15400D01*
Y7000D02*
X19650D01*
X13550Y15400D02*
X19650D01*
X5750Y46450D02*
X16050D01*
X5750Y36150D02*
X16050D01*
X5750D02*
Y46450D01*
X16050Y36150D02*
Y46450D01*
X10475Y10550D02*
X14525D01*
X10475Y7450D02*
X14525D01*
X10475D02*
Y10550D01*
X14525Y7450D02*
Y10550D01*
X3750Y5200D02*
X7850D01*
X3750Y12400D02*
X7850D01*
X3750Y5200D02*
Y12400D01*
X7850Y5200D02*
Y12400D01*
X7350Y16500D02*
X14050D01*
X7350Y21700D02*
X14050D01*
Y16500D02*
Y21700D01*
X7350Y16500D02*
Y21700D01*
X3600Y27025D02*
X4600D01*
Y24775D02*
Y27025D01*
X3600Y24775D02*
X4600D01*
X3600D02*
Y27025D01*
M02*
