G04 Layer_Color=128*
%FSLAX43Y43*%
%MOMM*%
G71*
G01*
G75*
%ADD10R,0.900X0.800*%
%ADD12R,0.800X0.900*%
G04:AMPARAMS|DCode=13|XSize=0.55mm|YSize=1.25mm|CornerRadius=0.05mm|HoleSize=0mm|Usage=FLASHONLY|Rotation=90.000|XOffset=0mm|YOffset=0mm|HoleType=Round|Shape=RoundedRectangle|*
%AMROUNDEDRECTD13*
21,1,0.550,1.151,0,0,90.0*
21,1,0.451,1.250,0,0,90.0*
1,1,0.099,0.576,0.226*
1,1,0.099,0.576,-0.226*
1,1,0.099,-0.576,-0.226*
1,1,0.099,-0.576,0.226*
%
%ADD13ROUNDEDRECTD13*%
%ADD17O,1.650X0.300*%
%ADD18O,0.300X1.650*%
%ADD39O,0.700X2.500*%
D10*
X12200Y17500D02*
D03*
Y16100D02*
D03*
D12*
X6800Y26600D02*
D03*
X8200D02*
D03*
X6800Y25000D02*
D03*
X8200D02*
D03*
X13500Y26100D02*
D03*
X12100D02*
D03*
X15200Y22900D02*
D03*
X16600D02*
D03*
X15200Y19700D02*
D03*
X16600D02*
D03*
X16700Y16600D02*
D03*
X18100D02*
D03*
X18500Y5700D02*
D03*
X17100D02*
D03*
X5100Y10300D02*
D03*
X6500D02*
D03*
X5100Y8700D02*
D03*
X6500D02*
D03*
X5100Y7300D02*
D03*
X6500D02*
D03*
D13*
X12125Y22905D02*
D03*
Y21635D02*
D03*
Y20365D02*
D03*
Y19095D02*
D03*
X6875Y22905D02*
D03*
Y21635D02*
D03*
Y20365D02*
D03*
Y19095D02*
D03*
D17*
X6800Y44050D02*
D03*
Y43550D02*
D03*
Y43050D02*
D03*
Y42550D02*
D03*
Y42050D02*
D03*
Y41550D02*
D03*
Y41050D02*
D03*
Y40550D02*
D03*
Y40050D02*
D03*
Y39550D02*
D03*
Y39050D02*
D03*
Y38550D02*
D03*
X15000D02*
D03*
Y39050D02*
D03*
Y39550D02*
D03*
Y40050D02*
D03*
Y40550D02*
D03*
Y41050D02*
D03*
Y41550D02*
D03*
Y42050D02*
D03*
Y42550D02*
D03*
Y43050D02*
D03*
Y43550D02*
D03*
Y44050D02*
D03*
D18*
X8150Y37200D02*
D03*
X8650D02*
D03*
X9150D02*
D03*
X9650D02*
D03*
X10150D02*
D03*
X10650D02*
D03*
X11150D02*
D03*
X11650D02*
D03*
X12150D02*
D03*
X12650D02*
D03*
X13150D02*
D03*
X13650D02*
D03*
Y45400D02*
D03*
X13150D02*
D03*
X12650D02*
D03*
X12150D02*
D03*
X11650D02*
D03*
X11150D02*
D03*
X10650D02*
D03*
X10150D02*
D03*
X9650D02*
D03*
X9150D02*
D03*
X8650D02*
D03*
X8150D02*
D03*
D39*
X14695Y13650D02*
D03*
X15965D02*
D03*
X17235D02*
D03*
X18505D02*
D03*
X14695Y8750D02*
D03*
X15965D02*
D03*
X17235D02*
D03*
X18505D02*
D03*
M02*
