M48
;Layer_Color=9474304
;FILE_FORMAT=4:3
METRIC,LZ
;TYPE=PLATED
T1F00S00C0.200
T2F00S00C0.400
T3F00S00C0.600
T4F00S00C0.711
T5F00S00C0.900
T6F00S00C1.000
%
T01
X00053Y00049
X00063
X00063Y00132
X00024
X00146Y00361
Y00372
X00163Y00371
X00187
X0020975Y0034025
X00186Y00431
X001635Y004205
X00163Y00412
X00134Y00396
X00135Y00385
X001335Y004405
X001505Y00453
X00153Y00467
X001518Y004742
X001582Y004734
X001646Y004714
X00141Y00474
X00133Y00471
X00124Y00473
X00116Y0047448
X00118Y00467
X00109Y0047
X00102Y00472
X00094Y00474
X00082Y00475
X00075Y00474
X00069Y00471
X0006912Y00464
X00073Y00454
X000845Y004405
X00084Y00415
X00087Y0041
X000935Y004155
X00081Y00393
X00082Y00386
X00055Y00406
Y00414
X00054Y0042
X00039Y00423
X00043Y00429
X00047Y0043493
X000525Y004405
X00035Y00401
X00031Y00395
X00026Y00389
X0002175Y0039975
X000175Y004065
X00015Y00415
X00021Y00335
X00122Y00357
X00129Y00359
X00131Y0039
X0012Y00239
X0008Y00135
X00048Y00137
X00022Y00157
T02
X00032Y00117
X00048Y00127
X000955Y000995
X00102Y00061
X0014695Y0006695
X00155Y00057
X0017235Y0011735
X00188Y0019
X00166Y00213
X0014895Y0021005
X001487Y002507
X00118Y00249
X00082Y00237
X0005005Y0022905
X00041Y00239
X00041Y00311
X00104Y00204
X0011Y0016
X00067Y00162
T03
X000516Y000203
X000643
X00077
X000897
Y00033
X00077
X000643
X000516
T04
X000323Y000203
X00108Y00033
X0019Y0026
X0009895Y0017195
T05
X001468Y00301
Y003264
X0019Y003064
Y00281
X001214Y00301
Y003264
X00096
X000706
Y00301
X00096
X00014Y004342
Y004596
Y00485
Y005104
T06
X00027Y00039
X00128Y00028
X00094Y00118
X00152Y00023
X00176Y00029
X00193Y00215
X00117Y00143
X00034Y00216
X00036Y00345
M30
