G04 Layer_Color=16711935*
%FSLAX43Y43*%
%MOMM*%
G71*
G01*
G75*
%ADD65C,0.100*%
D65*
X11100Y22600D02*
G03*
X11100Y22600I-500J0D01*
G01*
X14050Y43900D02*
G03*
X14050Y43900I-500J0D01*
G01*
X15500Y12300D02*
G03*
X15500Y12300I-500J0D01*
G01*
X8800Y43900D02*
G03*
X8800Y43900I-500J0D01*
G01*
X5650Y8150D02*
G03*
X5650Y8150I-500J0D01*
G01*
X10100Y20700D02*
G03*
X10100Y20700I-500J0D01*
G01*
X8375Y24525D02*
Y25475D01*
X6625Y24525D02*
Y25475D01*
X8375D01*
X6625Y24525D02*
X8375D01*
X14675Y26800D02*
Y28200D01*
X12525Y26800D02*
Y28200D01*
X14675D01*
X12525Y26800D02*
X14675D01*
X7700Y26125D02*
Y28275D01*
X6300Y26125D02*
Y28275D01*
X7700D01*
X6300Y26125D02*
X7700D01*
X10500D02*
Y28275D01*
X9100Y26125D02*
Y28275D01*
X10500D01*
X9100Y26125D02*
X10500D01*
X13300D02*
Y28275D01*
X11900Y26125D02*
Y28275D01*
X13300D01*
X11900Y26125D02*
X13300D01*
X14600Y26125D02*
Y28275D01*
X16000Y26125D02*
Y28275D01*
X14600Y26125D02*
X16000D01*
X14600Y28275D02*
X16000D01*
X4800Y27925D02*
Y30075D01*
X3400Y27925D02*
Y30075D01*
X4800D01*
X3400Y27925D02*
X4800D01*
X11825Y22125D02*
Y23075D01*
X13575Y22125D02*
Y23075D01*
X11825D02*
X13575D01*
X11825Y22125D02*
X13575D01*
X14925Y14425D02*
X15875D01*
X14925Y16175D02*
X15875D01*
X14925Y14425D02*
Y16175D01*
X15875Y14425D02*
Y16175D01*
X15625Y18600D02*
X17775D01*
X15625Y17200D02*
X17775D01*
X15625D02*
Y18600D01*
X17775Y17200D02*
Y18600D01*
X6575Y20425D02*
Y21375D01*
X4825Y20425D02*
Y21375D01*
Y20425D02*
X6575D01*
X4825Y21375D02*
X6575D01*
X4900Y16725D02*
Y18875D01*
X6300Y16725D02*
Y18875D01*
X4900Y16725D02*
X6300D01*
X4900Y18875D02*
X6300D01*
X4300Y16725D02*
Y18875D01*
X2900Y16725D02*
Y18875D01*
X4300D01*
X2900Y16725D02*
X4300D01*
X9875Y15125D02*
Y16075D01*
X8125Y15125D02*
Y16075D01*
Y15125D02*
X9875D01*
X8125Y16075D02*
X9875D01*
X6875Y14625D02*
Y15575D01*
X5125Y14625D02*
Y15575D01*
Y14625D02*
X6875D01*
X5125Y15575D02*
X6875D01*
X2725Y10375D02*
X3675D01*
X2725Y8625D02*
X3675D01*
Y10375D01*
X2725Y8625D02*
Y10375D01*
X17500Y7925D02*
Y10075D01*
X16100Y7925D02*
Y10075D01*
X17500D01*
X16100Y7925D02*
X17500D01*
X11625Y5625D02*
Y6575D01*
X13375Y5625D02*
Y6575D01*
X11625D02*
X13375D01*
X11625Y5625D02*
X13375D01*
X7500Y18500D02*
X11500D01*
X7500Y23500D02*
X11500D01*
X7500Y18500D02*
Y23500D01*
X11500Y18500D02*
Y23500D01*
X1900Y6325D02*
X3300D01*
X1900Y8475D02*
X3300D01*
Y6325D02*
Y8475D01*
X1900Y6325D02*
Y8475D01*
X7450Y44800D02*
X14450D01*
X7450Y37800D02*
X14450D01*
Y44800D01*
X7450Y37800D02*
Y44800D01*
X19100Y9200D02*
Y13200D01*
X14100Y9200D02*
Y13200D01*
Y9200D02*
X19100D01*
X14100Y13200D02*
X19100D01*
X7400Y44800D02*
X14400D01*
X7400Y37800D02*
X14400D01*
X7400D02*
Y44800D01*
X14400Y37800D02*
Y44800D01*
X11625Y10450D02*
X13375D01*
X11625Y7550D02*
X13375D01*
X11625D02*
Y10450D01*
X13375Y7550D02*
Y10450D01*
X4250Y7250D02*
X7350D01*
X4250Y10350D02*
X7350D01*
X4250Y7250D02*
Y10350D01*
X7350Y7250D02*
Y10350D01*
X8700Y16600D02*
X12700D01*
X8700Y21600D02*
X12700D01*
Y16600D02*
Y21600D01*
X8700Y16600D02*
Y21600D01*
X4500Y25100D02*
Y26700D01*
X3700Y25100D02*
Y26700D01*
X3700Y25100D02*
X4500D01*
X3700Y26700D02*
X4500D01*
X6675Y6825D02*
Y7775D01*
X4925Y6825D02*
Y7775D01*
X6675D01*
X4925Y6825D02*
X6675D01*
Y8225D02*
Y9175D01*
X4925Y8225D02*
Y9175D01*
X6675D01*
X4925Y8225D02*
X6675D01*
Y9825D02*
Y10775D01*
X4925Y9825D02*
Y10775D01*
X6675D01*
X4925Y9825D02*
X6675D01*
X16925Y5225D02*
Y6175D01*
X18675Y5225D02*
Y6175D01*
X16925Y5225D02*
X18675D01*
X16925Y6175D02*
X18675D01*
X18275Y16125D02*
Y17075D01*
X16525Y16125D02*
Y17075D01*
X18275D01*
X16525Y16125D02*
X18275D01*
X11725Y15925D02*
X12675D01*
X11725Y17675D02*
X12675D01*
Y15925D02*
Y17675D01*
X11725Y15925D02*
Y17675D01*
X7625Y26800D02*
X9775D01*
X7625Y28200D02*
X9775D01*
X7625Y26800D02*
Y28200D01*
X9775Y26800D02*
Y28200D01*
X14825Y19000D02*
X16975D01*
X14825Y20400D02*
X16975D01*
X14825Y19000D02*
Y20400D01*
X16975Y19000D02*
Y20400D01*
X14825Y22200D02*
X16975D01*
X14825Y23600D02*
X16975D01*
X14825Y22200D02*
Y23600D01*
X16975Y22200D02*
Y23600D01*
M02*
